<svg width="32" height="32" viewBox="0 0 32 32" fill="none" xmlns="http://www.w3.org/2000/svg">
<g id="Group 1000002669">
<path id="Vector" d="M20.6875 22.0137V27.25C20.6875 27.7675 20.2675 28.1875 19.75 28.1875H12.25C11.7325 28.1875 11.3125 27.7675 11.3125 27.25V16C11.3125 15.0737 11.595 14.18 12.0987 13.425L4.04 5.36621C1.4275 8.29684 0 12.0375 0 16C0 24.8482 7.14956 32 16 32C19.9625 32 23.7031 30.5718 26.6337 27.96L20.6875 22.0137Z" fill="#4F6BBF"/>
<path id="Vector_2" d="M16 0C12.0375 0 8.29684 1.42812 5.36621 4.04L13.1875 11.8612V4.75C13.1875 4.2325 13.6075 3.8125 14.125 3.8125H17.875C18.3925 3.8125 18.8125 4.2325 18.8125 4.75V12.2694C19.9806 13.15 20.6875 14.5344 20.6875 16V19.3612L27.96 26.6337C30.5725 23.7031 32 19.9625 32 16C32 7.15175 24.8503 0 16 0Z" fill="#4F6BBF"/>
<path id="Vector_3" d="M13.1875 24.4375H18.8125V26.3125H13.1875V24.4375Z" fill="#4F6BBF"/>
<path id="Vector_4" d="M13.4637 14.79C13.2844 15.16 13.1875 15.5707 13.1875 16V22.5625H18.8125V20.1388L13.4637 14.79Z" fill="#4F6BBF"/>
<path id="Vector_5" d="M17.4041 13.5806C17.1153 13.4125 16.9378 13.1037 16.9378 12.77V9.4375H15.0628V12.77C15.0628 13.0287 14.9559 13.2725 14.7734 13.4469L18.8128 17.4862V16C18.8128 14.9981 18.2859 14.0937 17.4041 13.5806Z" fill="#4F6BBF"/>
<path id="Vector_6" d="M15.0625 5.6875H16.9375V7.5625H15.0625V5.6875Z" fill="#4F6BBF"/>
</g>
</svg>
