<svg width="32" height="32" viewBox="0 0 32 32" fill="none" xmlns="http://www.w3.org/2000/svg">
<g id="Group 1000002670">
<g id="Group">
<path id="Vector" d="M11.0427 6.35352C10.8718 6.5052 10.4825 7.20233 10.248 8.92233L13.5276 12.2019C13.5813 12.1857 13.635 12.1697 13.6892 12.1546C12.5209 7.60914 11.3424 6.43345 11.0427 6.35352Z" fill="#4F6BBF"/>
<path id="Vector_2" d="M17.25 23.8125H16.9375V25.1276C17.5205 25.4947 18.1856 25.6875 18.8846 25.6875C20.3631 25.6875 21.6397 24.8102 22.2235 23.5492L13.0702 14.396C11.5793 15.1545 10.5904 16.4737 10.5904 17.9712C10.5904 18.1816 10.6164 18.4077 10.6699 18.6626C10.7329 18.9621 10.6456 19.2736 10.4361 19.4968C9.79212 20.1831 9.4375 21.0755 9.4375 22.0096C9.4375 24.0376 11.0874 25.6875 13.1154 25.6875C13.8144 25.6875 14.4795 25.4947 15.0625 25.1276V23.8125H14.75C14.2323 23.8125 13.8125 23.3927 13.8125 22.875C13.8125 22.3572 14.2323 21.9375 14.75 21.9375H17.25C17.7677 21.9375 18.1875 22.3572 18.1875 22.875C18.1875 23.3927 17.7677 23.8125 17.25 23.8125Z" fill="#4F6BBF"/>
<path id="Vector_3" d="M10.1477 14.3132C10.3787 14.0526 10.6357 13.8053 10.9184 13.5741C11.1638 13.3733 11.4234 13.189 11.6953 13.0213L10.0685 11.3945C10.0493 12.3298 10.0764 13.3155 10.1477 14.3132Z" fill="#4F6BBF"/>
<path id="Vector_4" d="M8.63577 7.31012C9.0447 5.59775 9.72483 4.67337 10.6942 4.50244C11.8375 4.301 12.8888 5.11744 13.8198 6.92925C14.4426 8.14144 15.0348 9.83244 15.5468 11.8534C15.6971 11.8457 15.8481 11.8414 15.9998 11.8414C16.1516 11.8414 16.3026 11.8457 16.4528 11.8534C16.9648 9.83244 17.557 8.14144 18.1799 6.92925C19.1108 5.11744 20.1623 4.3005 21.3054 4.50244C22.631 4.73619 23.4163 6.37681 23.706 9.51806C23.9405 12.0613 23.7856 15.1716 23.282 18.0634C23.2786 18.2319 23.2665 18.4024 23.2444 18.5777C24.0168 19.5556 24.4373 20.7572 24.4373 22.0096C24.4373 22.3544 24.4055 22.6919 24.345 23.0194L27.9563 26.6307C30.4712 23.8042 31.9998 20.0809 31.9998 16C31.9998 7.16344 24.8364 0 15.9998 0C11.9189 0 8.19558 1.52862 5.36914 4.0435L8.63577 7.31012Z" fill="#4F6BBF"/>
<path id="Vector_5" d="M23.605 24.9306C22.6246 26.509 20.8754 27.5623 18.8846 27.5623C17.8674 27.5623 16.8657 27.2779 16 26.7515C15.1343 27.2779 14.1326 27.5623 13.1154 27.5623C10.0535 27.5623 7.5625 25.0713 7.5625 22.0095C7.5625 20.7572 7.98294 19.5557 8.75506 18.5779C8.73231 18.3996 8.72006 18.227 8.71681 18.0572C8.22012 15.2022 8.064 12.1359 8.28619 9.61183L4.0435 5.36914C1.52863 8.19558 0 11.9189 0 15.9998C0 24.8364 7.16344 31.9998 16 31.9998C20.0809 31.9998 23.8043 30.4712 26.6307 27.9563L23.605 24.9306Z" fill="#4F6BBF"/>
<path id="Vector_6" d="M21.3295 18.6625C21.3824 18.4106 21.4081 18.1845 21.4081 17.9711C21.4081 15.625 18.9818 13.7163 15.9994 13.7163C15.6932 13.7163 15.393 13.7367 15.1006 13.7754L22.454 21.1288C22.304 20.5241 22.0006 19.9629 21.5632 19.4968C21.3538 19.2735 21.2665 18.9621 21.3295 18.6625Z" fill="#4F6BBF"/>
<path id="Vector_7" d="M21.8518 14.3135C21.9573 12.8365 21.9664 11.3856 21.8715 10.0864C21.6825 7.50004 21.1611 6.53323 20.9563 6.35254C20.6618 6.42848 19.481 7.59991 18.3105 12.1542C19.3392 12.4419 20.2847 12.9224 21.0809 13.5737C21.3636 13.8051 21.6207 14.0526 21.8518 14.3135Z" fill="#4F6BBF"/>
</g>
</g>
</svg>
