<svg width="40" height="41" viewBox="0 0 40 41" fill="none" xmlns="http://www.w3.org/2000/svg">
<rect y="0.382446" width="40" height="40" rx="20" fill="#1F2024"/>
<mask id="mask0_1607_160045" style="mask-type:alpha" maskUnits="userSpaceOnUse" x="13" y="12" width="14" height="17">
<path d="M23.1819 12.3903C23.1479 12.3523 21.9229 12.4053 20.8569 13.5623C19.7909 14.7183 19.9549 16.0443 19.9789 16.0783C20.0029 16.1123 21.4989 16.1653 22.4539 14.8203C23.4089 13.4753 23.2159 12.4293 23.1819 12.3903ZM26.4959 24.1233C26.4479 24.0273 24.1709 22.8893 24.3829 20.7013C24.5949 18.5123 26.0579 17.9123 26.0809 17.8473C26.1039 17.7823 25.4839 17.0573 24.8269 16.6903C24.3445 16.4316 23.8107 16.2833 23.2639 16.2563C23.1559 16.2533 22.7809 16.1613 22.0099 16.3723C21.5019 16.5113 20.3569 16.9613 20.0419 16.9793C19.7259 16.9973 18.7859 16.4573 17.7749 16.3143C17.1279 16.1893 16.4419 16.4453 15.9509 16.6423C15.4609 16.8383 14.5289 17.3963 13.8769 18.8793C13.2249 20.3613 13.5659 22.7093 13.8099 23.4393C14.0539 24.1683 14.4349 25.3633 15.0829 26.2353C15.6589 27.2193 16.4229 27.9023 16.7419 28.1343C17.0609 28.3663 17.9609 28.5203 18.5849 28.2013C19.0869 27.8933 19.9929 27.7163 20.3509 27.7293C20.7079 27.7423 21.4119 27.8833 22.1329 28.2683C22.7039 28.4653 23.2439 28.3833 23.7849 28.1633C24.3259 27.9423 25.1089 27.1043 26.0229 25.4053C26.3699 24.6153 26.5279 24.1883 26.4959 24.1233Z" fill="white"/>
<path d="M23.1819 12.3903C23.1479 12.3523 21.9229 12.4053 20.8569 13.5623C19.7909 14.7183 19.9549 16.0443 19.9789 16.0783C20.0029 16.1123 21.4989 16.1653 22.4539 14.8203C23.4089 13.4753 23.2159 12.4293 23.1819 12.3903ZM26.4959 24.1233C26.4479 24.0273 24.1709 22.8893 24.3829 20.7013C24.5949 18.5123 26.0579 17.9123 26.0809 17.8473C26.1039 17.7823 25.4839 17.0573 24.8269 16.6903C24.3445 16.4316 23.8107 16.2833 23.2639 16.2563C23.1559 16.2533 22.7809 16.1613 22.0099 16.3723C21.5019 16.5113 20.3569 16.9613 20.0419 16.9793C19.7259 16.9973 18.7859 16.4573 17.7749 16.3143C17.1279 16.1893 16.4419 16.4453 15.9509 16.6423C15.4609 16.8383 14.5289 17.3963 13.8769 18.8793C13.2249 20.3613 13.5659 22.7093 13.8099 23.4393C14.0539 24.1683 14.4349 25.3633 15.0829 26.2353C15.6589 27.2193 16.4229 27.9023 16.7419 28.1343C17.0609 28.3663 17.9609 28.5203 18.5849 28.2013C19.0869 27.8933 19.9929 27.7163 20.3509 27.7293C20.7079 27.7423 21.4119 27.8833 22.1329 28.2683C22.7039 28.4653 23.2439 28.3833 23.7849 28.1633C24.3259 27.9423 25.1089 27.1043 26.0229 25.4053C26.3699 24.6153 26.5279 24.1883 26.4959 24.1233Z" fill="white"/>
</mask>
<g mask="url(#mask0_1607_160045)">
<rect x="12.0012" y="12.3824" width="16" height="16" fill="white"/>
</g>
</svg>
