<svg width="24" height="25" viewBox="0 0 24 25" fill="none" xmlns="http://www.w3.org/2000/svg">
<g id="arrows-repeat">
<g id="Vector">
<path d="M19 13.9163C18.448 13.9163 18 14.3643 18 14.9163V16.9163H5.41397L6.70697 15.6233C7.09797 15.2323 7.09797 14.6003 6.70697 14.2093C6.31597 13.8183 5.68397 13.8183 5.29297 14.2093L2.29297 17.2093C2.20097 17.3013 2.12797 17.4123 2.07697 17.5343C1.97597 17.7793 1.97597 18.0543 2.07697 18.2983C2.12797 18.4203 2.20097 18.5313 2.29297 18.6233L5.29297 21.6233C5.48797 21.8183 5.74397 21.9163 5.99997 21.9163C6.25597 21.9163 6.51197 21.8183 6.70697 21.6233C7.09797 21.2323 7.09797 20.6003 6.70697 20.2093L5.41397 18.9163H19C19.552 18.9163 20 18.4683 20 17.9163V14.9163C20 14.3643 19.552 13.9163 19 13.9163Z" fill="#374151"/>
<path d="M21.923 7.53427C21.872 7.41227 21.799 7.30127 21.707 7.20927L18.707 4.20927C18.316 3.81827 17.684 3.81827 17.293 4.20927C16.902 4.60027 16.902 5.23227 17.293 5.62327L18.586 6.91627H4.99997C4.44797 6.91627 3.99997 7.36427 3.99997 7.91627V10.9163C3.99997 11.4683 4.44797 11.9163 4.99997 11.9163C5.55197 11.9163 5.99997 11.4683 5.99997 10.9163V8.91627H18.586L17.293 10.2093C16.902 10.6003 16.902 11.2323 17.293 11.6233C17.488 11.8183 17.744 11.9163 18 11.9163C18.256 11.9163 18.512 11.8183 18.707 11.6233L21.707 8.62327C21.799 8.53127 21.872 8.42027 21.923 8.29827C22.024 8.05427 22.024 7.77827 21.923 7.53427Z" fill="#374151"/>
</g>
</g>
</svg>
