<svg width="24" height="25" viewBox="0 0 24 25" fill="none" xmlns="http://www.w3.org/2000/svg">
<g id="Group">
<path id="Vector" d="M7.55957 17.0703H15.0734V24.5841H7.55957V17.0703Z" fill="#4F6BBF"/>
<path id="Vector_2" d="M3.36056 14.123L0 17.4836L1.75177 19.2354L5.11238 15.8748C4.42336 15.4074 3.828 14.812 3.36056 14.123Z" fill="#4F6BBF"/>
<path id="Vector_3" d="M15.2871 10.9297C15.1508 12.858 14.174 14.5576 12.7217 15.6639H23.9999V10.9297H15.2871Z" fill="#4F6BBF"/>
<path id="Vector_4" d="M16.4805 17.0703H24.0004V24.5841H16.4805V17.0703Z" fill="#4F6BBF"/>
<path id="Vector_5" d="M19.2526 0.583984H12.3018L15.7772 4.05939L19.2526 0.583984Z" fill="#4F6BBF"/>
<path id="Vector_6" d="M13.6793 6.15725L14.783 5.05348L11.3076 1.57812V4.44355C12.2231 4.83069 13.0324 5.42094 13.6793 6.15725Z" fill="#4F6BBF"/>
<path id="Vector_7" d="M19.2522 9.52326L15.7768 6.04785L14.499 7.32566C14.8676 7.99574 15.1219 8.73702 15.2358 9.52326H19.2522Z" fill="#4F6BBF"/>
<path id="Vector_8" d="M20.2469 8.52889V1.57812L16.7715 5.05348L20.2469 8.52889Z" fill="#4F6BBF"/>
<path id="Vector_9" d="M8.77009 5.35547C5.95304 5.35547 3.66113 7.64733 3.66113 10.4644C3.66113 13.2815 5.95299 15.5733 8.77009 15.5733C11.5871 15.5733 13.879 13.2815 13.879 10.4644C13.879 7.64733 11.5872 5.35547 8.77009 5.35547ZM8.77009 6.86906C9.51465 6.86906 10.2063 7.09537 10.7802 7.48298V9.52341H12.2402C12.3214 9.82345 12.3655 10.1387 12.3655 10.4644C12.3655 10.6222 12.3542 10.7773 12.3345 10.9297H7.55935V13.8503C6.16946 13.3532 5.17468 12.0252 5.17468 10.4644C5.17468 8.47875 6.78441 6.86906 8.77009 6.86906Z" fill="#4F6BBF"/>
</g>
</svg>
