<svg width="25" height="25" viewBox="0 0 25 25" fill="none" xmlns="http://www.w3.org/2000/svg">
<g id="chart-bar">
<path id="Vector" d="M2.90039 14.1752C2.90039 13.8569 3.02682 13.5517 3.25186 13.3267C3.47691 13.1016 3.78213 12.9752 4.10039 12.9752H6.50039C6.81865 12.9752 7.12388 13.1016 7.34892 13.3267C7.57396 13.5517 7.70039 13.8569 7.70039 14.1752V20.1752C7.70039 20.4935 7.57396 20.7987 7.34892 21.0237C7.12388 21.2488 6.81865 21.3752 6.50039 21.3752H4.10039C3.78213 21.3752 3.47691 21.2488 3.25186 21.0237C3.02682 20.7987 2.90039 20.4935 2.90039 20.1752V14.1752ZM10.1004 9.3752C10.1004 9.05694 10.2268 8.75171 10.4519 8.52667C10.6769 8.30162 10.9821 8.17519 11.3004 8.1752H13.7004C14.0187 8.1752 14.3239 8.30162 14.5489 8.52667C14.774 8.75171 14.9004 9.05694 14.9004 9.3752V20.1752C14.9004 20.4935 14.774 20.7987 14.5489 21.0237C14.3239 21.2488 14.0187 21.3752 13.7004 21.3752H11.3004C10.9821 21.3752 10.6769 21.2488 10.4519 21.0237C10.2268 20.7987 10.1004 20.4935 10.1004 20.1752V9.3752ZM17.3004 5.7752C17.3004 5.45694 17.4268 5.15171 17.6519 4.92667C17.8769 4.70162 18.1821 4.5752 18.5004 4.5752H20.9004C21.2187 4.5752 21.5239 4.70162 21.7489 4.92667C21.974 5.15171 22.1004 5.45694 22.1004 5.7752V20.1752C22.1004 20.4935 21.974 20.7987 21.7489 21.0237C21.5239 21.2488 21.2187 21.3752 20.9004 21.3752H18.5004C18.1821 21.3752 17.8769 21.2488 17.6519 21.0237C17.4268 20.7987 17.3004 20.4935 17.3004 20.1752V5.7752Z" fill="white"/>
</g>
</svg>
