<svg width="12" height="12" viewBox="0 0 12 12" fill="none" xmlns="http://www.w3.org/2000/svg">
<g id="check">
<path id="Vector" d="M4.86216 9C4.7316 9.00056 4.60601 8.94536 4.51227 8.84622L2.15098 6.34648C2.10391 6.29635 2.06636 6.2366 2.04046 6.17064C2.01456 6.10468 2.00083 6.0338 2.00004 5.96204C1.99844 5.81713 2.04968 5.67746 2.14248 5.57377C2.23528 5.47007 2.36203 5.41084 2.49486 5.4091C2.62769 5.40736 2.75571 5.46326 2.85077 5.5645L4.86416 7.69505L9.14888 3.15528C9.24406 3.05404 9.37221 2.9982 9.50513 3.00004C9.63806 3.00188 9.76487 3.06126 9.85766 3.1651C9.95046 3.26894 10.0016 3.40875 9.99996 3.55376C9.99827 3.69878 9.94385 3.83712 9.84867 3.93836L5.21206 8.84622C5.11831 8.94536 4.99273 9.00056 4.86216 9Z" fill="#5B7CE2"/>
</g>
</svg>
