<svg width="24" height="25" viewBox="0 0 24 25" fill="none" xmlns="http://www.w3.org/2000/svg">
<g id="chevron-right">
<path id="Vector" d="M9.34701 19.9165C9.08387 19.9164 8.82666 19.8344 8.60788 19.6808C8.38911 19.5271 8.2186 19.3087 8.11791 19.0533C8.01722 18.7978 7.99087 18.5167 8.04219 18.2455C8.09351 17.9743 8.2202 17.7252 8.40623 17.5296L12.7881 12.9251L8.40623 8.32055C8.27914 8.19157 8.17777 8.03727 8.10803 7.86668C8.03829 7.69608 8.00159 7.5126 8.00005 7.32694C7.99851 7.14127 8.03218 6.95715 8.09909 6.7853C8.166 6.61346 8.2648 6.45734 8.38974 6.32605C8.51468 6.19476 8.66325 6.09094 8.82678 6.02063C8.99031 5.95032 9.16553 5.91494 9.34222 5.91656C9.5189 5.91817 9.69351 5.95674 9.85586 6.03003C10.0182 6.10331 10.165 6.20983 10.2878 6.34338L15.6104 11.9365C15.8599 12.1987 16 12.5543 16 12.9251C16 13.2959 15.8599 13.6515 15.6104 13.9137L10.2878 19.5068C10.0383 19.7691 9.69989 19.9164 9.34701 19.9165Z" fill="#9CA3AF"/>
</g>
</svg>
