<svg width="30" height="31" viewBox="0 0 30 31" fill="none" xmlns="http://www.w3.org/2000/svg">
<rect x="0.625" y="1.125" width="28.75" height="28.75" rx="4.375" stroke="#E5E7EB" stroke-width="1.25"/>
<path d="M15.8914 15.5077L19.1996 12.1996C19.2592 12.1419 19.3069 12.0729 19.3396 11.9967C19.3724 11.9204 19.3896 11.8384 19.3903 11.7554C19.3911 11.6724 19.3752 11.5901 19.3438 11.5133C19.3124 11.4365 19.266 11.3667 19.2073 11.3081C19.1486 11.2494 19.0788 11.203 19.002 11.1715C18.9252 11.1401 18.8429 11.1243 18.7599 11.125C18.6769 11.1257 18.5949 11.143 18.5187 11.1757C18.4424 11.2085 18.3735 11.2561 18.3158 11.3158L15.0077 14.6239L11.6996 11.3158C11.5817 11.202 11.4238 11.139 11.2599 11.1404C11.0961 11.1418 10.9393 11.2075 10.8234 11.3234C10.7075 11.4393 10.6418 11.5961 10.6404 11.7599C10.639 11.9238 10.702 12.0817 10.8158 12.1996L14.1239 15.5077L10.8158 18.8158C10.7561 18.8735 10.7085 18.9424 10.6757 19.0187C10.643 19.0949 10.6257 19.1769 10.625 19.2599C10.6243 19.3429 10.6401 19.4252 10.6715 19.502C10.703 19.5788 10.7494 19.6486 10.8081 19.7073C10.8667 19.766 10.9365 19.8124 11.0133 19.8438C11.0901 19.8752 11.1724 19.8911 11.2554 19.8903C11.3384 19.8896 11.4204 19.8724 11.4967 19.8396C11.5729 19.8069 11.6419 19.7592 11.6996 19.6996L15.0077 16.3914L18.3158 19.6996C18.4337 19.8134 18.5916 19.8764 18.7554 19.875C18.9193 19.8736 19.0761 19.8078 19.1919 19.6919C19.3078 19.5761 19.3736 19.4193 19.375 19.2554C19.3764 19.0916 19.3134 18.9337 19.1996 18.8158L15.8914 15.5077Z" fill="black"/>
</svg>
