<svg width="24" height="24" viewBox="0 0 24 24" fill="none" xmlns="http://www.w3.org/2000/svg">
<g id="Group">
<path id="Vector" d="M2.20312 4.40625C3.41988 4.40625 4.40625 3.41988 4.40625 2.20312C4.40625 0.986373 3.41988 0 2.20312 0C0.986373 0 0 0.986373 0 2.20312C0 3.41988 0.986373 4.40625 2.20312 4.40625Z" fill="#4F6BBF"/>
<path id="Vector_2" d="M15.2896 13.3594C16.1911 13.3594 16.9219 12.6286 16.9219 11.7271C16.9219 10.8255 16.1911 10.0947 15.2896 10.0947C14.388 10.0947 13.6572 10.8255 13.6572 11.7271C13.6572 12.6286 14.388 13.3594 15.2896 13.3594Z" fill="#4F6BBF"/>
<path id="Vector_3" d="M22.1242 12.4614C23.0663 11.3115 23.5781 9.87947 23.5781 8.35908C23.5781 4.81336 20.7393 1.92867 17.25 1.92867C15.8107 1.92867 14.4129 2.43398 13.2986 3.33783C12.4667 2.22769 11.154 1.54688 9.75 1.54688C7.40081 1.54688 5.47064 3.40331 5.30798 5.7472C5.28863 5.74702 5.26936 5.74688 5.25 5.74688C2.35514 5.74688 0 8.11767 0 11.0318C0 12.1034 0.324797 13.1391 0.939328 14.027C1.39148 14.6803 1.97428 15.219 2.64844 15.6113C2.41725 16.2176 2.29688 16.867 2.29688 17.5227C2.29688 20.4368 4.63097 22.8076 7.5 22.8076C9.12277 22.8076 10.6181 22.0473 11.589 20.7937C12.8088 22.7535 14.9469 24 17.25 24C19.0428 24 20.736 23.2815 22.0176 21.9768C23.296 20.6755 24 18.958 24 17.1409C24 15.4089 23.3238 13.7391 22.1242 12.4614ZM11.4705 13.8276C11.3899 13.9238 11.3022 14.0142 11.2099 14.0965C10.7384 14.5164 10.1335 14.7383 9.46045 14.7383C7.785 14.7383 6.42188 13.3752 6.42188 11.6997C6.42188 10.0243 7.785 8.66114 9.46045 8.66114C10.0693 8.66114 10.6569 8.84077 11.1599 9.18052C11.4817 9.39792 11.5662 9.83498 11.3489 10.1568C11.1314 10.4785 10.6943 10.5631 10.3726 10.3458C10.1031 10.1637 9.78764 10.0674 9.46045 10.0674C8.56041 10.0674 7.82813 10.7997 7.82813 11.6998C7.82813 12.5998 8.56041 13.3321 9.46045 13.3321C9.78783 13.3321 10.0618 13.236 10.2746 13.0464C10.3162 13.0094 10.356 12.9683 10.3929 12.9242C10.6425 12.6266 11.0859 12.5877 11.3835 12.8371C11.6811 13.0865 11.72 13.53 11.4705 13.8276ZM12.251 11.727C12.251 10.0516 13.6141 8.68847 15.2895 8.68847C16.965 8.68847 18.3281 10.0516 18.3281 11.727C18.3281 13.4025 16.965 14.7656 15.2895 14.7656C13.6141 14.7656 12.251 13.4025 12.251 11.727ZM19.5088 19.785C18.9772 19.7918 18.5896 19.7948 18.3045 19.7948C17.5751 19.7948 17.5148 19.7747 17.4207 19.7433C17.1978 19.669 17.0239 19.4922 16.9557 19.2703C16.8413 18.8986 17.028 18.6541 17.2644 18.3446C17.4482 18.104 17.7903 17.6561 18.364 16.8363C18.5352 16.5917 18.6063 16.4227 18.6353 16.3179L18.6405 16.2777C18.6258 16.1653 18.5294 16.0781 18.4131 16.0781C18.2891 16.0781 18.206 16.1708 18.1881 16.2623C18.1132 16.6433 17.7437 16.8915 17.3626 16.8167C16.9815 16.7418 16.7333 16.3723 16.8082 15.9912C16.9583 15.2267 17.6333 14.6719 18.4131 14.6719C19.315 14.6719 20.0487 15.4056 20.0487 16.3074C20.0487 16.3372 20.0468 16.367 20.043 16.3965L20.025 16.5375C20.022 16.5609 20.0178 16.5842 20.0125 16.6072C19.9364 16.9356 19.774 17.2743 19.5161 17.6427C19.3133 17.9325 19.1385 18.1773 18.9885 18.384C19.1556 18.3827 19.326 18.3809 19.4912 18.3788C19.4942 18.3788 19.4972 18.3788 19.5002 18.3788C19.8844 18.3788 20.1982 18.6878 20.2031 19.0731C20.208 19.4614 19.8971 19.7801 19.5088 19.785Z" fill="#4F6BBF"/>
</g>
</svg>
