<svg width="30" height="25" viewBox="0 0 30 25" fill="none" xmlns="http://www.w3.org/2000/svg">
<path id="Vector" d="M29.0389 14.0084C29.0852 15.1156 28.6905 16.196 27.9412 17.0125C27.192 17.8291 26.1495 18.3151 25.0424 18.364C24.9776 18.367 24.913 18.3685 24.8485 18.3685C24.5543 18.3683 24.2611 18.3364 23.9737 18.2735C23.1211 19.5899 22.0031 20.7139 20.6912 21.5736C19.3794 22.4332 17.9025 23.0096 16.3552 23.2658C16.1721 23.8034 15.807 24.2603 15.3229 24.5573C14.8388 24.8543 14.2661 24.9729 13.7039 24.8924C13.1416 24.812 12.6251 24.5377 12.2437 24.1168C11.8623 23.696 11.6399 23.1551 11.6149 22.5877C11.59 22.0203 11.7641 21.462 12.1071 21.0093C12.4501 20.5566 12.9405 20.238 13.4936 20.1086C14.0466 19.9791 14.6274 20.047 15.1358 20.3004C15.6441 20.5537 16.0479 20.9768 16.2774 21.4963C18.4558 21.0934 20.4238 19.9389 21.8384 18.2339C23.253 16.5288 24.0244 14.3815 24.0182 12.1661C24.0182 6.93225 19.7602 2.67421 14.5263 2.67421C9.29242 2.67421 5.03439 6.93225 5.03439 12.1661C5.0341 13.7845 5.44772 15.3761 6.23592 16.7896C6.26263 16.8362 6.28268 16.8864 6.29549 16.9386C6.37162 17.1502 6.36348 17.383 6.27276 17.5888C6.18203 17.7945 6.01567 17.9576 5.80809 18.0441C5.29982 18.258 4.75391 18.3681 4.20246 18.3681C4.13756 18.3681 4.07253 18.3666 4.00735 18.3635C2.9007 18.3141 1.85883 17.8278 1.11019 17.0113C0.361551 16.1948 -0.0327598 15.1148 0.0137199 14.008C0.032405 13.5666 0.0219788 13.1728 0.0117869 12.792C0.00229795 12.4335 -0.00760102 12.0627 0.00868254 11.6759C0.05728 10.5952 0.522138 9.57526 1.30589 8.82967C2.08965 8.08407 3.1315 7.67066 4.21324 7.67602C5.95031 3.70166 9.91887 0.916992 14.5263 0.916992C19.1337 0.916992 23.1024 3.70166 24.8394 7.67608C25.9213 7.66991 26.9635 8.08296 27.7473 8.82858C28.5312 9.57419 28.9959 10.5944 29.0439 11.6752C29.0602 12.0627 29.0504 12.4334 29.0408 12.7919C29.0307 13.1728 29.0202 13.5667 29.0389 14.0084ZM21.8952 12.1661C21.8948 13.295 21.6351 14.4088 21.1361 15.4215C20.6371 16.4341 19.9123 17.3187 19.0174 18.0069C18.1225 18.6951 17.0815 19.1686 15.9747 19.3908C14.8678 19.6131 13.7247 19.5781 12.6335 19.2887L9.6509 21.0112C9.5004 21.0981 9.32751 21.1384 9.1541 21.1271C8.98068 21.1157 8.81453 21.0532 8.67665 20.9474C8.53878 20.8416 8.43537 20.6973 8.37952 20.5327C8.32366 20.3682 8.31786 20.1907 8.36285 20.0229L9.12514 17.1792C7.86275 15.8147 7.16035 14.025 7.15769 12.1661C7.15769 8.10179 10.4631 4.79553 14.5263 4.79553C18.5895 4.79553 21.8952 8.10179 21.8952 12.1661ZM12.4777 12.1661C12.4777 11.9331 12.3851 11.7096 12.2203 11.5449C12.0556 11.3801 11.8321 11.2875 11.5991 11.2875H11.5976C11.4239 11.2878 11.2542 11.3396 11.1099 11.4364C10.9656 11.5331 10.8533 11.6705 10.787 11.831C10.7208 11.9916 10.7036 12.1682 10.7377 12.3385C10.7718 12.5089 10.8556 12.6653 10.9786 12.788C11.1015 12.9107 11.258 12.9942 11.4284 13.028C11.5988 13.0617 11.7754 13.0442 11.9358 12.9777C12.0963 12.9111 12.2334 12.7985 12.3299 12.6541C12.4264 12.5096 12.4779 12.3398 12.4779 12.1661H12.4777ZM15.4051 12.1661C15.405 12.1374 15.4035 12.1086 15.4004 12.08C15.3976 12.0513 15.3933 12.0228 15.3876 11.9945C15.3823 11.9664 15.3753 11.9386 15.3664 11.9113C15.3583 11.8838 15.3483 11.8569 15.3378 11.8299C15.3272 11.803 15.3144 11.7778 15.3009 11.7526C15.2875 11.7273 15.2728 11.7026 15.257 11.6788C15.2409 11.6547 15.2237 11.6314 15.2053 11.6091C15.1873 11.5867 15.168 11.5654 15.1474 11.5452C15.1275 11.5247 15.1058 11.5054 15.0836 11.4867C15.0613 11.4691 15.0378 11.4515 15.0138 11.4357C14.99 11.4198 14.9654 11.4052 14.9401 11.3918C14.9148 11.3783 14.8885 11.366 14.8621 11.3549C14.8357 11.3438 14.8088 11.3342 14.7813 11.3262C14.7265 11.3086 14.67 11.2972 14.6126 11.2922C14.5266 11.2839 14.4398 11.2881 14.3549 11.3045C14.3267 11.3103 14.2987 11.3175 14.2712 11.3262C14.2438 11.3342 14.2168 11.3438 14.1904 11.3549C14.164 11.366 14.1377 11.3783 14.1125 11.3918C14.0873 11.4052 14.0627 11.4199 14.0386 11.4357C14.0145 11.4515 13.9912 11.4691 13.9696 11.4867C13.9467 11.5054 13.9256 11.5247 13.9051 11.5452C13.8846 11.5654 13.8652 11.5867 13.8471 11.6091C13.8289 11.6314 13.8119 11.6547 13.7962 11.6788C13.7801 11.7026 13.7652 11.7272 13.7517 11.7526C13.7381 11.7777 13.726 11.8035 13.7153 11.8299C13.7042 11.8565 13.6944 11.8837 13.686 11.9113C13.6779 11.9383 13.6708 11.9664 13.665 11.9945C13.6592 12.0228 13.6549 12.0513 13.652 12.08C13.6492 12.1087 13.6479 12.1374 13.6479 12.1661C13.6479 12.1948 13.6492 12.2241 13.652 12.2528C13.6549 12.2813 13.6592 12.3097 13.665 12.3377C13.6708 12.3659 13.6779 12.394 13.686 12.4215C13.6944 12.4489 13.7042 12.4759 13.7153 12.5023C13.726 12.5289 13.7381 12.5549 13.7517 12.5802C13.7651 12.6054 13.7804 12.63 13.7962 12.654C13.812 12.6779 13.8289 12.701 13.8471 12.7232C13.8653 12.7456 13.8847 12.7671 13.9051 12.7876C13.9256 12.8075 13.9467 12.8274 13.9696 12.8456C13.9916 12.8639 14.0146 12.8809 14.0386 12.8965C14.0627 12.9124 14.0872 12.9276 14.1125 12.9411C14.1633 12.9676 14.2165 12.9895 14.2712 13.0067C14.2987 13.0149 14.3268 13.0219 14.3549 13.0277C14.4114 13.0393 14.4689 13.045 14.5265 13.0447C14.7593 13.0441 14.9824 12.9517 15.1474 12.7876C15.1879 12.7465 15.2246 12.7018 15.257 12.654C15.2728 12.63 15.2874 12.6054 15.3009 12.5802C15.3144 12.5551 15.3267 12.5287 15.3378 12.5023C15.3489 12.476 15.3583 12.4485 15.3664 12.4215C15.3752 12.394 15.3823 12.3661 15.3876 12.3377C15.3933 12.3097 15.3976 12.2813 15.4004 12.2528C15.4034 12.224 15.4049 12.195 15.4049 12.166L15.4051 12.1661ZM18.3338 12.1661C18.3338 11.9331 18.2412 11.7096 18.0764 11.5449C17.9117 11.3801 17.6882 11.2875 17.4552 11.2875H17.4535C17.2798 11.2879 17.1101 11.3397 16.9658 11.4364C16.8215 11.5332 16.7092 11.6705 16.643 11.8311C16.5767 11.9916 16.5596 12.1682 16.5937 12.3386C16.6277 12.5089 16.7116 12.6653 16.8345 12.788C16.9574 12.9107 17.114 12.9942 17.2844 13.028C17.4548 13.0617 17.6313 13.0442 17.7918 12.9777C17.9522 12.9111 18.0894 12.7985 18.1858 12.6541C18.2823 12.5096 18.3338 12.3398 18.3338 12.1661Z" fill="#4F6BBF"/>
</svg>
