<svg width="23" height="25" viewBox="0 0 23 25" fill="none" xmlns="http://www.w3.org/2000/svg">
<path id="Vector" fill-rule="evenodd" clip-rule="evenodd" d="M11.4352 0.416992C10.0991 0.416992 9.01589 1.50019 9.01589 2.83634C9.01589 4.17249 10.0991 5.25569 11.4352 5.25569C12.7714 5.25569 13.8546 4.17249 13.8546 2.83634C13.8546 1.50019 12.7714 0.416992 11.4352 0.416992ZM11.4353 9.52579C15.5474 9.52579 18.8809 12.8593 18.8809 16.9714C18.8809 21.0835 15.5474 24.417 11.4353 24.417C7.32319 24.417 3.98969 21.0835 3.98969 16.9714C3.98969 12.8593 7.32319 9.52579 11.4353 9.52579ZM13.4622 15.1368V13.7575H12.6622V15.1368C12.6622 15.3577 12.8413 15.5368 13.0622 15.5368C13.2831 15.5368 13.4622 15.3577 13.4622 15.1368ZM10.2068 13.7575H9.40994V15.1368C9.40994 15.3569 9.58834 15.5353 9.80839 15.5353C10.0284 15.5353 10.2068 15.3569 10.2068 15.1368V13.7575ZM7.51404 19.792H15.3566L14.8395 14.0055C14.824 13.8319 14.6796 13.6998 14.5053 13.6998H13.4622V12.9887C13.4622 11.873 12.551 10.9618 11.4353 10.9618C10.3197 10.9618 9.40844 11.873 9.40844 12.9887L9.40999 13.6998H8.36534C8.19099 13.6998 8.04659 13.8318 8.03109 14.0055L7.51404 19.792ZM12.6622 13.6998V12.9887C12.6622 12.3147 12.1093 11.7618 11.4353 11.7618C10.7615 11.7618 10.2068 12.3144 10.2068 12.9887V13.6998H12.6622ZM15.428 20.592H7.44254L7.40529 21.0088C7.37844 21.309 7.61179 21.5641 7.91319 21.5641H14.9574C15.2588 21.5641 15.4921 21.309 15.4653 21.0088L15.428 20.592ZM4.67754 2.38634C6.01369 2.38634 7.09689 3.46949 7.09689 4.80564C7.09689 6.14179 6.01374 7.22499 4.67754 7.22499C3.34139 7.22499 2.25819 6.14179 2.25819 4.80564C2.25819 3.46954 3.34139 2.38634 4.67754 2.38634ZM18.1931 2.38634C19.5292 2.38634 20.6124 3.46949 20.6124 4.80564C20.6124 6.14179 19.5292 7.22499 18.1931 7.22499C16.8569 7.22499 15.7737 6.14179 15.7737 4.80564C15.7738 3.46954 16.8569 2.38634 18.1931 2.38634ZM18.0099 11.9952H22.4202C22.7105 11.9952 22.9233 11.7286 22.859 11.4455C22.3749 9.31524 20.4697 7.72504 18.193 7.72504C16.7596 7.72504 15.4735 8.35554 14.5966 9.35414C15.9565 9.91929 17.1325 10.8377 18.0099 11.9952ZM9.07724 9.06859C8.65764 8.53339 8.14384 8.07944 7.56354 7.72899C8.43334 6.53319 9.84339 5.75569 11.4352 5.75569C13.0271 5.75569 14.4371 6.53319 15.307 7.72899C14.7267 8.07944 14.2129 8.53339 13.7933 9.06859C13.0462 8.84584 12.2547 8.72584 11.4352 8.72584C10.6158 8.72584 9.82444 8.84599 9.07724 9.06859ZM0.450337 11.9952H4.86059C5.73809 10.8378 6.91394 9.91919 8.27384 9.35414C7.39694 8.35554 6.11094 7.72504 4.67749 7.72504C2.40074 7.72504 0.495488 9.31524 0.0115376 11.4455C-0.0528124 11.7286 0.160038 11.9952 0.450337 11.9952Z" fill="#4F6BBF"/>
</svg>
