<svg width="86" height="85" viewBox="0 0 86 85" fill="none" xmlns="http://www.w3.org/2000/svg">
<path d="M71.3346 38.9583C71.3346 54.6064 58.6494 67.2917 43.0013 67.2917C27.3532 67.2917 14.668 54.6064 14.668 38.9583C14.668 23.3103 27.3532 10.625 43.0013 10.625C58.6494 10.625 71.3346 23.3103 71.3346 38.9583Z" fill="#FFBB0D"/>
<path fill-rule="evenodd" clip-rule="evenodd" d="M73.4335 38.9585C73.4335 55.7656 59.8086 69.3906 43.0014 69.3906C26.1943 69.3906 12.5693 55.7656 12.5693 38.9585C12.5693 22.1513 26.1943 8.52637 43.0014 8.52637C59.8086 8.52637 73.4335 22.1513 73.4335 38.9585ZM43.0014 67.2918C58.6495 67.2918 71.3348 54.6065 71.3348 38.9585C71.3348 23.3104 58.6495 10.6251 43.0014 10.6251C27.3534 10.6251 14.6681 23.3104 14.6681 38.9585C14.6681 54.6065 27.3534 67.2918 43.0014 67.2918Z" fill="#E89B05"/>
<path fill-rule="evenodd" clip-rule="evenodd" d="M16.7668 40.0078C16.1873 40.0078 15.7174 39.538 15.7174 38.9584C15.7175 23.8899 27.9329 11.6745 43.0014 11.6745C43.581 11.6745 44.0508 12.1443 44.0508 12.7239C44.0508 13.3034 43.581 13.7732 43.0014 13.7732C29.092 13.7732 17.8162 25.049 17.8162 38.9584C17.8162 39.538 17.3464 40.0078 16.7668 40.0078Z" fill="#E8AA0A"/>
<path fill-rule="evenodd" clip-rule="evenodd" d="M69.2361 37.9092C69.8157 37.9092 70.2855 38.379 70.2855 38.9586C70.2855 54.0271 58.07 66.2425 43.0015 66.2425C42.422 66.2425 41.9521 65.7727 41.9521 65.1931C41.9521 64.6136 42.422 64.1437 43.0015 64.1437C56.9109 64.1437 68.1867 52.868 68.1867 38.9586C68.1867 38.379 68.6565 37.9092 69.2361 37.9092Z" fill="#E8AA0A"/>
<path d="M63.989 38.9584C63.989 50.5495 54.5925 59.946 43.0013 59.946C31.4102 59.946 22.0137 50.5495 22.0137 38.9584C22.0137 27.3672 31.4102 17.9707 43.0013 17.9707C54.5925 17.9707 63.989 27.3672 63.989 38.9584Z" fill="#FFDD28"/>
<path fill-rule="evenodd" clip-rule="evenodd" d="M66.0879 38.9585C66.0879 51.7088 55.7517 62.0449 43.0015 62.0449C30.2512 62.0449 19.915 51.7088 19.915 38.9585C19.915 26.2082 30.2512 15.8721 43.0015 15.8721C55.7517 15.8721 66.0879 26.2082 66.0879 38.9585ZM43.0015 59.9461C54.5926 59.9461 63.9891 50.5496 63.9891 38.9585C63.9891 27.3673 54.5926 17.9708 43.0015 17.9708C31.4103 17.9708 22.0138 27.3673 22.0138 38.9585C22.0138 50.5496 31.4103 59.9461 43.0015 59.9461Z" fill="#E89B05"/>
<path fill-rule="evenodd" clip-rule="evenodd" d="M43.0022 56.7987C52.8546 56.7987 60.8417 48.8117 60.8417 38.9592C60.8417 38.3796 61.3115 37.9098 61.891 37.9098C62.4706 37.9098 62.9404 38.3796 62.9404 38.9592C62.9404 49.9708 54.0138 58.8975 43.0022 58.8975C42.4226 58.8975 41.9528 58.4276 41.9528 57.8481C41.9528 57.2685 42.4226 56.7987 43.0022 56.7987Z" fill="#ECC704"/>
<path fill-rule="evenodd" clip-rule="evenodd" d="M43.0017 21.1193C33.1493 21.1193 25.1622 29.1063 25.1622 38.9588C25.1622 39.5383 24.6924 40.0082 24.1129 40.0082C23.5333 40.0082 23.0635 39.5383 23.0635 38.9588C23.0635 27.9472 31.9901 19.0205 43.0017 19.0205C43.5813 19.0205 44.0511 19.4903 44.0511 20.0699C44.0511 20.6494 43.5813 21.1193 43.0017 21.1193Z" fill="#FFEF9C"/>
<path d="M10.9265 66.8963L8.22356 61.4904C7.9292 60.9017 8.35728 60.209 9.0155 60.209L20.8641 60.209C21.3531 60.209 21.7495 60.6054 21.7495 61.0944L21.7495 73.4902C21.7495 73.9792 21.3531 74.3756 20.8641 74.3756L9.01549 74.3756C8.35728 74.3756 7.9292 73.683 8.22356 73.0943L10.9265 67.6883C11.0512 67.439 11.0512 67.1456 10.9265 66.8963Z" fill="#4E6ABF"/>
<path d="M75.0725 66.8963L77.7755 61.4904C78.0699 60.9017 77.6418 60.209 76.9836 60.209L65.1349 60.209C64.6459 60.209 64.2495 60.6054 64.2495 61.0944L64.2495 73.4902C64.2495 73.9792 64.6459 74.3757 65.1349 74.3757L76.9836 74.3757C77.6418 74.3757 78.0699 73.683 77.7755 73.0943L75.0725 67.6883C74.9479 67.439 74.9479 67.1456 75.0725 66.8963Z" fill="#4E6ABF"/>
<path fill-rule="evenodd" clip-rule="evenodd" d="M9.145 67.2917L6.63999 62.2817C5.75693 60.5155 7.04119 58.4375 9.01582 58.4375L20.8644 58.4375C22.3314 58.4375 23.5207 59.6267 23.5207 61.0937L23.5207 73.4896C23.5207 74.9566 22.3314 76.1458 20.8644 76.1458L9.01581 76.1458C7.04119 76.1458 5.75693 74.0678 6.63999 72.3017L9.145 67.2917ZM9.34247 67.6866C9.34264 67.687 9.34281 67.6873 9.34299 67.6877L10.1349 67.2917L9.34297 67.6876L9.34247 67.6866ZM76.8547 67.2917L79.3597 62.2817C80.2428 60.5155 78.9585 58.4375 76.9839 58.4375L65.1353 58.4375C63.6683 58.4375 62.479 59.6267 62.479 61.0937L62.479 73.4896C62.479 74.9566 63.6683 76.1458 65.1353 76.1458L76.9839 76.1458C78.9585 76.1458 80.2428 74.0678 79.3597 72.3017L76.8547 67.2917ZM77.7758 61.4897L75.0728 66.8957C74.9482 67.145 74.9482 67.4384 75.0728 67.6876L77.7758 73.0936C78.0702 73.6823 77.6421 74.375 76.9839 74.375L65.1353 74.375C64.6463 74.375 64.2498 73.9786 64.2498 73.4896L64.2498 61.0937C64.2498 60.6047 64.6463 60.2083 65.1353 60.2083L76.9839 60.2083C77.6421 60.2083 78.0702 60.901 77.7758 61.4897ZM8.22388 61.4897L10.9269 66.8957C11.0515 67.145 11.0515 67.4384 10.9269 67.6876L8.22388 73.0936C7.92952 73.6823 8.3576 74.375 9.01582 74.375L20.8644 74.375C21.3534 74.375 21.7498 73.9786 21.7498 73.4896L21.7498 61.0937C21.7498 60.6047 21.3534 60.2083 20.8644 60.2083L9.01582 60.2083C8.3576 60.2083 7.92952 60.901 8.22388 61.4897Z" fill="#001658"/>
<path fill-rule="evenodd" clip-rule="evenodd" d="M9.48987 61.009C9.652 60.7518 9.93483 60.5957 10.2389 60.5957H14.002C14.491 60.5957 14.8874 60.9921 14.8874 61.4811C14.8874 61.9701 14.491 62.3665 14.002 62.3665H11.6439L13.4726 66.1902C13.6836 66.6314 13.497 67.16 13.0558 67.371C12.6147 67.582 12.086 67.3954 11.8751 66.9543L9.44017 61.8631C9.30896 61.5888 9.32773 61.2663 9.48987 61.009Z" fill="#4E6ABF"/>
<path d="M67.791 69.9482L67.791 57.5524C67.791 57.0634 67.3946 56.667 66.9056 56.667L19.0931 56.667C18.6041 56.667 18.2077 57.0634 18.2077 57.5524L18.2077 69.9482C18.2077 70.4372 18.6041 70.8337 19.0931 70.8337L66.9056 70.8337C67.3946 70.8337 67.791 70.4372 67.791 69.9482Z" fill="#4E6ABF"/>
<path fill-rule="evenodd" clip-rule="evenodd" d="M69.5625 57.5527L69.5625 69.9486C69.5625 71.4156 68.3733 72.6048 66.9062 72.6048L19.0937 72.6048C17.6267 72.6048 16.4375 71.4156 16.4375 69.9486L16.4375 57.5527C16.4375 56.0857 17.6267 54.8965 19.0938 54.8965L66.9063 54.8965C68.3733 54.8965 69.5625 56.0857 69.5625 57.5527ZM67.7917 57.5527L67.7917 69.9486C67.7917 70.4376 67.3953 70.834 66.9062 70.834L19.0937 70.834C18.6047 70.834 18.2083 70.4376 18.2083 69.9486L18.2083 57.5527C18.2083 57.0637 18.6047 56.6673 19.0937 56.6673L66.9063 56.6673C67.3953 56.6673 67.7917 57.0637 67.7917 57.5527Z" fill="#001658"/>
<path d="M65.3451 64.0868C64.8437 64.0868 64.4373 63.6903 64.4373 63.2011C64.4373 62.712 64.8437 62.3154 65.3451 62.3154C65.8465 62.3154 66.2529 62.712 66.2529 63.2011C66.2529 63.6903 65.8465 64.0868 65.3451 64.0868Z" fill="#4E6ABF"/>
<path d="M61.8913 63.7327C61.2676 63.7327 60.762 63.2395 60.762 62.631C60.762 62.0225 61.2676 61.5293 61.8913 61.5293C62.5149 61.5293 63.0205 62.0225 63.0205 62.631C63.0205 63.2395 62.5149 63.7327 61.8913 63.7327Z" fill="#4E6ABF"/>
<path d="M63.4295 66.2511C63.1177 66.2511 62.8649 66.0045 62.8649 65.7003C62.8649 65.396 63.1177 65.1494 63.4295 65.1494C63.7414 65.1494 63.9941 65.396 63.9941 65.7003C63.9941 66.0045 63.7414 66.2511 63.4295 66.2511Z" fill="#4E6ABF"/>
<path d="M62.4559 60.4249C62.1441 60.4249 61.8913 60.1783 61.8913 59.8741C61.8913 59.5699 62.1441 59.3232 62.4559 59.3232C62.7677 59.3232 63.0205 59.5699 63.0205 59.8741C63.0205 60.1783 62.7677 60.4249 62.4559 60.4249Z" fill="#4E6ABF"/>
<path d="M59.4891 65.7003C59.1773 65.7003 58.9245 65.4537 58.9245 65.1495C58.9245 64.8453 59.1773 64.5986 59.4891 64.5986C59.8009 64.5986 60.0537 64.8453 60.0537 65.1495C60.0537 65.4537 59.8009 65.7003 59.4891 65.7003Z" fill="#4E6ABF"/>
<path d="M58.9246 62.8664C58.6128 62.8664 58.36 62.6197 58.36 62.3155C58.36 62.0113 58.6128 61.7646 58.9246 61.7646C59.2365 61.7646 59.4893 62.0113 59.4893 62.3155C59.4893 62.6197 59.2365 62.8664 58.9246 62.8664Z" fill="#4E6ABF"/>
<path d="M55.075 69.256C54.7632 69.256 54.5104 69.0094 54.5104 68.7051C54.5104 68.4009 54.7632 68.1543 55.075 68.1543C55.3869 68.1543 55.6396 68.4009 55.6396 68.7051C55.6396 69.0094 55.3869 69.256 55.075 69.256Z" fill="#4E6ABF"/>
<path d="M66.3084 67.1525C65.9966 67.1525 65.7438 66.9059 65.7438 66.6016C65.7438 66.2974 65.9966 66.0508 66.3084 66.0508C66.6203 66.0508 66.873 66.2974 66.873 66.6016C66.873 66.9059 66.6203 67.1525 66.3084 67.1525Z" fill="#4E6ABF"/>
<path d="M60.9717 68.3594C60.4642 68.3594 60.0528 67.958 60.0528 67.4629C60.0528 66.9678 60.4642 66.5664 60.9717 66.5664C61.4792 66.5664 61.8906 66.9678 61.8906 67.4629C61.8906 67.958 61.4792 68.3594 60.9717 68.3594Z" fill="#4E6ABF"/>
<path d="M64.9131 69.2559C64.4056 69.2559 63.9942 68.8545 63.9942 68.3594C63.9942 67.8643 64.4056 67.4629 64.9131 67.4629C65.4206 67.4629 65.832 67.8643 65.832 68.3594C65.832 68.8545 65.4206 69.2559 64.9131 69.2559Z" fill="#4E6ABF"/>
<path d="M56.876 67.4932C56.3685 67.4932 55.9571 67.0918 55.9571 66.5967C55.9571 66.1016 56.3685 65.7002 56.876 65.7002C57.3835 65.7002 57.7949 66.1016 57.7949 66.5967C57.7949 67.0918 57.3835 67.4932 56.876 67.4932Z" fill="#4E6ABF"/>
<path d="M58.3592 69.5285C58.0474 69.5285 57.7946 69.2818 57.7946 68.9776C57.7946 68.6734 58.0474 68.4268 58.3592 68.4268C58.671 68.4268 58.9238 68.6734 58.9238 68.9776C58.9238 69.2818 58.671 69.5285 58.3592 69.5285Z" fill="#4E6ABF"/>
<path fill-rule="evenodd" clip-rule="evenodd" d="M18.7617 57.9401C18.7617 57.4511 19.1581 57.0547 19.6471 57.0547H52.8503C53.3393 57.0547 53.7357 57.4511 53.7357 57.9401C53.7357 58.4291 53.3393 58.8255 52.8503 58.8255H20.5326V65.0234C20.5326 65.5124 20.1361 65.9089 19.6471 65.9089C19.1581 65.9089 18.7617 65.5124 18.7617 65.0234V57.9401Z" fill="#B4C6FF"/>
<path d="M32.5391 36.4845L39.0772 35.1531L41.0387 31.8246L43.0001 28.4961L46.923 35.1531L53.4611 36.4845L48.2306 41.8101L49.5382 48.4672L43.0001 45.1386L36.462 48.4672L37.7696 41.8101L32.5391 36.4845Z" fill="#FFEF9C"/>
<path fill-rule="evenodd" clip-rule="evenodd" d="M39.0779 35.1538L43.0008 28.4967L46.9237 35.1538L53.4618 36.4852L48.2313 41.8108L49.5389 48.4678L43.0008 45.1393L36.4626 48.4678L37.7703 41.8108L32.5397 36.4852L39.0779 35.1538ZM35.7106 42.4281L31.1828 37.8179C30.6942 37.3205 30.517 36.5957 30.7209 35.929C30.9248 35.2623 31.4771 34.7605 32.1602 34.6214L37.869 33.4589L41.3621 27.5311C41.704 26.9509 42.3273 26.5947 43.0008 26.5947C43.6743 26.5947 44.2975 26.9509 44.6394 27.5311L48.1326 33.4589L53.8413 34.6214C54.5245 34.7605 55.0768 35.2623 55.2807 35.929C55.4846 36.5957 55.3073 37.3205 54.8188 37.8179L50.2909 42.4281L51.4053 48.1012C51.5455 48.8153 51.266 49.5468 50.6853 49.9855C50.1046 50.4241 49.3246 50.493 48.676 50.1628L43.0008 47.2736L37.3255 50.1628C36.677 50.493 35.8969 50.4241 35.3162 49.9855C34.7355 49.5468 34.456 48.8153 34.5963 48.1012L35.7106 42.4281Z" fill="#E89B05"/>
</svg>
