<svg width="24" height="25" viewBox="0 0 24 25" fill="none" xmlns="http://www.w3.org/2000/svg">
<g id="Icon">
<path id="Vector" fill-rule="evenodd" clip-rule="evenodd" d="M12 0.25C5.37712 0.25 0 5.62712 0 12.25C0 18.8729 5.37712 24.25 12 24.25C18.6229 24.25 24 18.8729 24 12.25C24 5.62712 18.6229 0.25 12 0.25ZM14.4949 5.15828C14.5719 4.77316 14.371 4.38693 14.0115 4.22842C13.6532 4.06991 13.2313 4.18265 12.9991 4.49856L6.85954 12.8707C6.67312 13.1252 6.64521 13.4634 6.78809 13.7447C6.93098 14.026 7.21898 14.2035 7.53488 14.2035H10.4383L9.50177 19.3562C9.43144 19.7447 9.6413 20.1298 10.0063 20.2794C10.3713 20.4301 10.7922 20.3051 11.0154 19.9802L17.155 11.05C17.3314 10.7933 17.3503 10.4606 17.2063 10.186C17.0612 9.91028 16.7766 9.73837 16.4651 9.73837H13.5795L14.4949 5.15828Z" fill="#4F6BBF"/>
</g>
</svg>
