<svg width="14" height="14" viewBox="0 0 14 14" fill="none" xmlns="http://www.w3.org/2000/svg">
<g id="exclamation">
<path id="Vector" d="M7.00001 1.1665C5.84628 1.1665 4.71847 1.50862 3.75918 2.1496C2.79989 2.79057 2.05222 3.70161 1.61071 4.76752C1.1692 5.83342 1.05368 7.00631 1.27876 8.13786C1.50384 9.26942 2.05941 10.3088 2.87522 11.1246C3.69102 11.9404 4.73042 12.496 5.86198 12.7211C6.99354 12.9462 8.16642 12.8306 9.23233 12.3891C10.2982 11.9476 11.2093 11.1999 11.8502 10.2407C12.4912 9.28137 12.8333 8.15356 12.8333 6.99984C12.8316 5.45326 12.2165 3.97052 11.1229 2.87692C10.0293 1.78333 8.54658 1.1682 7.00001 1.1665ZM7.00001 9.9165C6.88463 9.9165 6.77185 9.88229 6.67592 9.81819C6.58 9.7541 6.50523 9.66299 6.46108 9.5564C6.41693 9.44981 6.40537 9.33252 6.42788 9.21937C6.45039 9.10621 6.50595 9.00227 6.58753 8.92069C6.66911 8.83911 6.77305 8.78355 6.8862 8.76104C6.99936 8.73853 7.11665 8.75009 7.22324 8.79424C7.32983 8.83839 7.42093 8.91316 7.48503 9.00909C7.54913 9.10501 7.58334 9.2178 7.58334 9.33317C7.58334 9.48788 7.52188 9.63625 7.41249 9.74565C7.30309 9.85504 7.15472 9.9165 7.00001 9.9165ZM7.58334 7.58317C7.58334 7.73788 7.52188 7.88625 7.41249 7.99565C7.30309 8.10504 7.15472 8.1665 7.00001 8.1665C6.8453 8.1665 6.69692 8.10504 6.58753 7.99565C6.47813 7.88625 6.41667 7.73788 6.41667 7.58317V4.6665C6.41667 4.51179 6.47813 4.36342 6.58753 4.25402C6.69692 4.14463 6.8453 4.08317 7.00001 4.08317C7.15472 4.08317 7.30309 4.14463 7.41249 4.25402C7.52188 4.36342 7.58334 4.51179 7.58334 4.6665V7.58317Z" fill="#6B7280"/>
</g>
</svg>
