<svg width="32" height="30" viewBox="0 0 32 30" fill="none" xmlns="http://www.w3.org/2000/svg">
<g id="Group 1000002668">
<g id="Group">
<g id="Group_2">
<path id="Vector" d="M24.5 15C20.3646 15 17 18.3646 17 22.5C17 26.6354 20.3646 30 24.5 30C28.6354 30 32 26.6354 32 22.5C32 18.3646 28.6354 15 24.5 15ZM28.9128 21.2878L24.2253 25.9753C24.0422 26.1584 23.8023 26.25 23.5625 26.25C23.3227 26.25 23.0827 26.1584 22.8997 25.9753L20.0872 23.1628C19.721 22.7966 19.721 22.2033 20.0872 21.8371C20.4534 21.4709 21.0467 21.4709 21.4129 21.8371L23.5625 23.9868L27.5872 19.9621C27.9534 19.5959 28.5467 19.5959 28.9129 19.9621C29.2791 20.3283 29.2791 20.9216 28.9128 21.2878Z" fill="#4F6BBF"/>
</g>
</g>
<g id="Group_3">
<g id="Group_4">
<path id="Vector_2" d="M25.4375 0H2.8125C1.26163 0 0 1.26163 0 2.8125V3.75H28.25V2.8125C28.25 1.26163 26.9884 0 25.4375 0Z" fill="#4F6BBF"/>
</g>
</g>
<g id="Group_5">
<g id="Group_6">
<path id="Vector_3" d="M28.25 5.625H0V7.5H28.25V5.625Z" fill="#4F6BBF"/>
</g>
</g>
<g id="Group_7">
<g id="Group_8">
<path id="Vector_4" d="M0 9.375V19.6875C0 21.2384 1.26163 22.5 2.8125 22.5H15.125C15.125 17.3309 19.3309 13.125 24.5 13.125C25.8346 13.125 27.0995 13.4146 28.25 13.9197V9.375H0ZM10.4375 18.75H4.6875C4.16931 18.75 3.75 18.3307 3.75 17.8125C3.75 17.2943 4.16931 16.875 4.6875 16.875H10.4375C10.9557 16.875 11.375 17.2943 11.375 17.8125C11.375 18.3307 10.9557 18.75 10.4375 18.75ZM10.4375 15H4.6875C4.16931 15 3.75 14.5807 3.75 14.0625C3.75 13.5443 4.16931 13.125 4.6875 13.125H10.4375C10.9557 13.125 11.375 13.5443 11.375 14.0625C11.375 14.5807 10.9557 15 10.4375 15Z" fill="#4F6BBF"/>
</g>
</g>
</g>
</svg>
