<svg width="24" height="25" viewBox="0 0 24 25" fill="none" xmlns="http://www.w3.org/2000/svg">
<g id="file-lines">
<g id="Vector">
<path d="M9.00023 7.6665V2.7965C8.51227 2.93148 8.06709 3.18937 7.70723 3.5455L4.87923 6.3735C4.52381 6.7339 4.26604 7.17889 4.13023 7.6665H9.00023Z" fill="#374151"/>
<path d="M18.0662 2.6665H11.0002V7.6665C11.0002 8.19694 10.7895 8.70564 10.4144 9.08072C10.0394 9.45579 9.53067 9.6665 9.00023 9.6665H4.00023V20.6665C3.99221 21.188 4.19129 21.6914 4.55383 22.0663C4.91637 22.4412 5.41279 22.657 5.93423 22.6665H18.0662C18.5877 22.657 19.0841 22.4412 19.4466 22.0663C19.8092 21.6914 20.0083 21.188 20.0002 20.6665V4.6665C20.0083 4.14503 19.8092 3.64166 19.4466 3.26674C19.0841 2.89183 18.5877 2.67597 18.0662 2.6665ZM15.0662 17.6665H8.82823C8.56302 17.6665 8.30866 17.5611 8.12113 17.3736C7.93359 17.1861 7.82823 16.9317 7.82823 16.6665C7.82823 16.4013 7.93359 16.1469 8.12113 15.9594C8.30866 15.7719 8.56302 15.6665 8.82823 15.6665H15.0662C15.3315 15.6665 15.5858 15.7719 15.7733 15.9594C15.9609 16.1469 16.0662 16.4013 16.0662 16.6665C16.0662 16.9317 15.9609 17.1861 15.7733 17.3736C15.5858 17.5611 15.3315 17.6665 15.0662 17.6665ZM15.0662 13.6665H8.82823C8.56302 13.6665 8.30866 13.5611 8.12113 13.3736C7.93359 13.1861 7.82823 12.9317 7.82823 12.6665C7.82823 12.4013 7.93359 12.1469 8.12113 11.9594C8.30866 11.7719 8.56302 11.6665 8.82823 11.6665H15.0662C15.3315 11.6665 15.5858 11.7719 15.7733 11.9594C15.9609 12.1469 16.0662 12.4013 16.0662 12.6665C16.0662 12.9317 15.9609 13.1861 15.7733 13.3736C15.5858 13.5611 15.3315 13.6665 15.0662 13.6665Z" fill="#374151"/>
</g>
</g>
</svg>
