<svg width="24" height="25" viewBox="0 0 24 25" fill="none" xmlns="http://www.w3.org/2000/svg">
<g id="Group 1000002610">
<g id="XMLID_794_">
<path id="XMLID_808_" d="M11.9996 4.43359C7.79961 4.43359 4.34961 7.84609 4.34961 12.0836C4.34961 16.2836 7.76211 19.7336 11.9996 19.7336C16.1996 19.7336 19.6496 16.3211 19.6496 12.0836C19.6496 7.88359 16.1996 4.43359 11.9996 4.43359ZM11.9996 17.8961C8.77461 17.8961 6.18711 15.2711 6.18711 12.0836C6.18711 8.85859 8.81211 6.27109 11.9996 6.27109C15.1871 6.27109 17.8121 8.89609 17.8121 12.0836C17.8121 15.3086 15.2246 17.8961 11.9996 17.8961Z" fill="#4F6BBF"/>
<path id="XMLID_856_" d="M12 7.02148C9.1875 7.02148 6.9375 9.30898 6.9375 12.084C6.9375 14.8965 9.225 17.1465 12 17.1465C14.775 17.1465 17.0625 14.8965 17.0625 12.084C17.0625 9.27148 14.8125 7.02148 12 7.02148ZM12 11.709C12.975 11.709 13.7625 12.4965 13.7625 13.4715C13.7625 14.334 13.1625 15.009 12.375 15.1965V15.6465C12.375 15.8715 12.1875 16.0215 12 16.0215C11.8125 16.0215 11.625 15.8715 11.625 15.6465V15.1965C10.8375 15.009 10.2375 14.334 10.2375 13.4715C10.2375 13.284 10.3875 13.0965 10.6125 13.0965C10.8 13.0965 10.9875 13.284 10.9875 13.4715C10.9875 14.034 11.4375 14.484 12 14.484C12.5625 14.484 13.0125 14.034 13.0125 13.4715C13.0125 12.909 12.5625 12.459 12 12.459C11.025 12.459 10.2375 11.6715 10.2375 10.6965C10.2375 9.83398 10.8375 9.15898 11.625 8.97148V8.55898C11.625 8.33398 11.8125 8.18398 12 8.18398C12.1875 8.18398 12.375 8.33398 12.375 8.55898V8.97148C13.1625 9.15898 13.7625 9.83398 13.7625 10.6965C13.7625 10.884 13.575 11.0715 13.3875 11.0715C13.2 11.0715 13.0125 10.884 13.0125 10.6965C13.0125 10.134 12.5625 9.68398 12 9.68398C11.4375 9.68398 10.9875 10.134 10.9875 10.6965C10.9875 11.259 11.4375 11.709 12 11.709Z" fill="#4F6BBF"/>
<path id="XMLID_859_" d="M16.5002 5.03412L17.0627 4.05912C17.6252 4.20912 18.1877 3.94662 18.4502 3.45912C18.8252 2.85912 18.6002 2.07162 17.9627 1.69662C17.3627 1.32162 16.5752 1.54662 16.2002 2.18412C15.9002 2.67162 16.0127 3.30912 16.3877 3.68412L15.8252 4.65912C16.0877 4.77162 16.3127 4.88412 16.5002 5.03412Z" fill="#4F6BBF"/>
<path id="XMLID_860_" d="M11.6246 2.59648V3.72148H11.9996C11.9996 3.72148 12.2621 3.72148 12.3746 3.72148V2.59648C12.8996 2.44648 13.2746 1.95898 13.2746 1.35898C13.2746 0.646484 12.7121 0.0839844 11.9996 0.0839844C11.2871 0.0839844 10.7246 0.646484 10.7246 1.35898C10.7246 1.95898 11.0996 2.44648 11.6246 2.59648Z" fill="#4F6BBF"/>
<path id="XMLID_861_" d="M19.4248 8.22123L20.3998 7.65873C20.5498 7.80873 20.7373 7.92123 20.9248 7.95873C21.0373 7.99623 21.1498 7.99623 21.2623 7.99623C21.4873 7.99623 21.7123 7.92123 21.8998 7.80873C22.1998 7.62123 22.4248 7.35873 22.4998 7.02123C22.5748 6.68373 22.5373 6.34623 22.3873 6.04623C22.0498 5.44623 21.2623 5.22123 20.6248 5.55873C20.1373 5.85873 19.9123 6.42123 20.0248 6.94623L19.0498 7.58373C19.1998 7.77123 19.3123 7.99623 19.4248 8.22123Z" fill="#4F6BBF"/>
<path id="XMLID_862_" d="M6.93685 4.05892L7.49935 5.03392C7.72435 4.88392 7.91185 4.77142 8.13685 4.65892L7.57435 3.68392C7.94935 3.27142 8.02435 2.67142 7.76185 2.18392C7.42435 1.58392 6.63685 1.35892 5.99935 1.69642C5.39935 2.03392 5.17435 2.82142 5.51185 3.45892C5.81185 3.90892 6.37435 4.17142 6.93685 4.05892Z" fill="#4F6BBF"/>
<path id="XMLID_863_" d="M12.3746 21.5713V20.4463C12.2621 20.4463 12.1121 20.4463 11.9996 20.4463C11.8871 20.4463 11.7371 20.4463 11.6246 20.4463V21.5713C11.0996 21.7213 10.7246 22.2088 10.7246 22.8088C10.7246 23.5213 11.2871 24.0838 11.9996 24.0838C12.7121 24.0838 13.2746 23.5213 13.2746 22.8088C13.2746 22.2088 12.8996 21.7588 12.3746 21.5713Z" fill="#4F6BBF"/>
<path id="XMLID_864_" d="M20.9629 16.2088C20.7754 16.2463 20.5879 16.3588 20.4379 16.5088L19.4629 15.9463C19.3504 16.1713 19.2379 16.3963 19.0879 16.5838L20.0629 17.1463C20.0254 17.3338 20.0254 17.5588 20.0629 17.7838C20.3629 18.8713 21.8629 19.0588 22.4254 18.0838C22.9504 17.1088 22.0504 15.9088 20.9629 16.2088Z" fill="#4F6BBF"/>
<path id="XMLID_865_" d="M22.7248 10.8086C22.1623 10.8086 21.6748 11.1836 21.4873 11.7086H20.3623V12.0836V12.4586H21.4873C21.6373 12.9836 22.1248 13.3586 22.7248 13.3586C23.4373 13.3586 23.9998 12.7961 23.9998 12.0836C23.9998 11.3711 23.4373 10.8086 22.7248 10.8086Z" fill="#4F6BBF"/>
<path id="XMLID_866_" d="M3.5998 7.65925L4.5748 8.22175C4.6873 7.99675 4.7998 7.77175 4.9498 7.58425L3.9748 7.02175C4.3123 5.59675 2.3623 4.84675 1.6123 6.08425C1.4248 6.38425 1.3873 6.72175 1.4998 7.05925C1.7248 7.99675 2.8873 8.33425 3.5998 7.65925Z" fill="#4F6BBF"/>
<path id="XMLID_867_" d="M17.0623 20.1088L16.4998 19.1338C16.2748 19.2838 16.0873 19.3963 15.8623 19.5088L16.4248 20.4838C16.0498 20.8963 15.9748 21.4963 16.2373 21.9838C16.6123 22.5838 17.3623 22.8088 17.9998 22.4713C18.5998 22.1338 18.8248 21.3463 18.4873 20.7088C18.1873 20.2213 17.6248 19.9963 17.0623 20.1088Z" fill="#4F6BBF"/>
<path id="XMLID_868_" d="M7.50034 19.1338L6.93784 20.1088C6.37534 19.9588 5.81284 20.2588 5.55034 20.7088C5.06284 21.5713 5.70034 22.6213 6.67534 22.6213C7.12534 22.6213 7.53784 22.3963 7.80034 21.9838C8.10034 21.4963 7.98784 20.8588 7.61284 20.4838L8.17534 19.5088C7.91284 19.3963 7.68784 19.2838 7.50034 19.1338Z" fill="#4F6BBF"/>
<path id="XMLID_869_" d="M2.5125 12.4586H3.6375C3.6375 12.3461 3.6375 12.1961 3.6375 12.0836C3.6375 11.9711 3.6375 11.8211 3.6375 11.7086H2.5125C2.3625 11.1836 1.875 10.8086 1.275 10.8086C0.5625 10.8086 0 11.3711 0 12.0836C0 12.7961 0.5625 13.3586 1.275 13.3586C1.875 13.3586 2.325 12.9836 2.5125 12.4586Z" fill="#4F6BBF"/>
<path id="XMLID_870_" d="M4.5373 15.9463L3.5623 16.5088C3.1498 16.1338 2.5498 16.0588 2.0623 16.3213C1.7623 16.5088 1.5373 16.7713 1.4623 17.1088C1.3873 17.4463 1.4248 17.7838 1.5748 18.0838C1.9123 18.6838 2.6998 18.9088 3.3373 18.5713C3.6373 18.3838 3.8623 18.1213 3.9373 17.7838C4.0123 17.5588 3.9748 17.3713 3.9373 17.1463L4.9123 16.5838C4.7998 16.3963 4.6873 16.1713 4.5373 15.9463Z" fill="#4F6BBF"/>
</g>
</g>
</svg>
