<svg width="32" height="32" viewBox="0 0 32 32" fill="none" xmlns="http://www.w3.org/2000/svg">
<g id="Group 1000002673">
<path id="Vector" fill-rule="evenodd" clip-rule="evenodd" d="M16 0C24.8365 0 32 7.1634 32 16C32 24.8366 24.8365 32 16 32C7.16347 32 0 24.8366 0 16C0 7.1634 7.16347 0 16 0ZM21.6814 19.9642V9.566C21.6813 9.49074 21.6514 9.41859 21.5982 9.36537C21.5449 9.31216 21.4728 9.28222 21.3975 9.28213H16.4139L15.4059 10.2267C15.2072 10.4133 13.9729 10.4172 13.8317 10.4886L12.923 11.4493L21.6814 19.9642ZM20.0707 9.87333H17.2828C17.2226 9.87347 17.1635 9.88941 17.1114 9.91956C17.0593 9.94971 17.016 9.99301 16.9859 10.0451L16.1846 11.4287C16.1546 11.4808 16.1388 11.54 16.1389 11.6002C16.1389 11.6603 16.1547 11.7195 16.1848 11.7716C16.2148 11.8238 16.258 11.8671 16.31 11.8973C16.3621 11.9275 16.4212 11.9436 16.4813 11.9438H20.0704C20.1155 11.9438 20.1602 11.9349 20.2019 11.9176C20.2436 11.9003 20.2814 11.875 20.3133 11.843C20.3452 11.8111 20.3705 11.7732 20.3877 11.7315C20.405 11.6898 20.4138 11.6451 20.4138 11.6V10.216C20.4137 10.1251 20.3775 10.0379 20.3131 9.97367C20.2488 9.9094 20.1617 9.87327 20.0707 9.8732V9.87333ZM16 28.1939H15.9995C22.73 28.1879 28.1878 22.7301 28.1939 16.0005C28.1938 9.26667 22.7333 3.80613 16 3.80613C9.26667 3.80613 3.8062 9.26667 3.8062 16C3.8062 22.7333 9.26667 28.1937 16 28.1939ZM7.82133 8.6516C7.78747 8.6191 7.74732 8.59387 7.70335 8.57743C7.65939 8.56099 7.61253 8.55371 7.56565 8.55602C7.51877 8.55833 7.47286 8.57018 7.43072 8.59086C7.38858 8.61154 7.35111 8.6406 7.3206 8.67627C1.14573 15.9729 6.28293 27.3635 15.9939 27.3635C18.7874 27.3626 21.4826 26.333 23.5653 24.4714C23.6 24.4399 23.6279 24.4016 23.6474 24.3588C23.6668 24.3161 23.6773 24.2699 23.6783 24.223C23.6793 24.1761 23.6706 24.1294 23.653 24.086C23.6353 24.0425 23.609 24.0031 23.5755 23.9701L7.82133 8.6516ZM16.0004 4.64273C13.2096 4.64265 10.5165 5.67025 8.4352 7.5294C8.40046 7.561 8.37252 7.59934 8.35308 7.64209C8.33364 7.68484 8.32311 7.7311 8.32213 7.77805C8.32115 7.825 8.32974 7.87166 8.34738 7.91518C8.36502 7.95871 8.39134 7.99818 8.42473 8.0312C13.6758 13.1369 18.9269 18.2426 24.1781 23.3483C24.2118 23.3811 24.2519 23.4066 24.2959 23.4233C24.3398 23.4399 24.3868 23.4473 24.4338 23.445C24.4807 23.4427 24.5267 23.4308 24.5689 23.4099C24.611 23.3891 24.6485 23.3598 24.6788 23.3239C30.8572 15.9987 25.6795 4.643 16.0007 4.643L16.0004 4.64273ZM12.4312 10.9705L12.6645 10.7247C11.7275 9.901 11.9105 9.935 11.6601 10.2203L12.4314 10.9705H12.4312ZM10.7083 13.7894L10.7076 23.1502C10.7077 23.2255 10.7376 23.2976 10.7908 23.3508C10.844 23.4041 10.9161 23.4341 10.9913 23.4343H21.3975C21.6042 23.4343 21.6814 23.2765 21.6814 23.0841L11.3857 13.0738L10.7083 13.7894ZM10.1811 11.9037C9.9278 12.1901 9.8772 12.0221 10.7278 12.77L10.8939 12.5942L10.1811 11.9037Z" fill="#4F6BBF"/>
</g>
</svg>
