<svg width="32" height="32" viewBox="0 0 32 32" fill="none" xmlns="http://www.w3.org/2000/svg">
<g id="Group">
<path id="Vector" d="M11.8814 11.6695V8.52439H13.5788C13.8783 8.52439 14.078 8.3247 14.078 8.02517V5.37931C14.078 5.1297 13.8783 4.88009 13.5788 4.88009H11.8814V2.38399C11.8814 2.13438 11.6318 1.88477 11.3822 1.88477H8.48674C8.18721 1.88477 7.98752 2.13438 7.98752 2.38399V4.88009H6.24025C5.99064 4.88009 5.74103 5.1297 5.74103 5.37931V8.02517C5.74103 8.3247 5.99064 8.52439 6.24025 8.52439H7.98752V11.6695C3.34477 12.618 0 16.6118 0 21.4043C0 26.8957 4.44306 31.3387 9.93448 31.3387C15.4259 31.3387 19.869 26.8957 19.869 21.4043C19.869 16.6118 16.5242 12.618 11.8814 11.6695ZM9.93448 27.1453C6.83931 27.1453 4.29329 24.5993 4.29329 21.5041C4.29329 18.4089 6.83931 15.8629 9.93448 15.8629C13.0296 15.8629 15.5757 18.4089 15.5757 21.5041C15.5757 24.6492 13.0296 27.1453 9.93448 27.1453Z" fill="#4F6BBF"/>
<path id="Vector_2" d="M23.963 10.4713V6.6273H25.261C25.4606 6.6273 25.6104 6.52746 25.7103 6.37769C25.8101 6.22792 25.8101 6.02823 25.7103 5.87847L22.4653 0.88627C22.2656 0.586738 21.8163 0.586738 21.6167 0.88627L18.3717 5.87847C18.2719 6.02823 18.2719 6.22792 18.3717 6.37769C18.4716 6.52746 18.6213 6.6273 18.821 6.6273H20.119V10.4713C18.6213 10.7708 17.2235 11.4198 16.0254 12.3184C17.2734 13.1172 18.3218 14.1655 19.1206 15.4136C22.8148 13.1671 27.7071 15.8129 27.7071 20.2061C27.7071 24.1 23.7633 26.8457 20.119 25.4978C19.5699 26.8956 18.7212 28.0938 17.7227 29.1421C24.2126 32.3371 32.0004 27.5945 32.0004 20.2061C31.9505 15.5134 28.5558 11.3699 23.963 10.4713Z" fill="#4F6BBF"/>
</g>
</svg>
