<svg width="24" height="25" viewBox="0 0 24 25" fill="none" xmlns="http://www.w3.org/2000/svg">
<g id="globe">
<path id="Vector" d="M12 2.75C10.0222 2.75 8.08879 3.33649 6.4443 4.4353C4.79981 5.53412 3.51809 7.0959 2.76121 8.92317C2.00433 10.7504 1.8063 12.7611 2.19215 14.7009C2.578 16.6407 3.53041 18.4225 4.92894 19.8211C6.32746 21.2196 8.10929 22.172 10.0491 22.5579C11.9889 22.9437 13.9996 22.7457 15.8268 21.9888C17.6541 21.2319 19.2159 19.9502 20.3147 18.3057C21.4135 16.6612 22 14.7278 22 12.75C22 11.4368 21.7413 10.1364 21.2388 8.92317C20.7363 7.70991 19.9997 6.60752 19.0711 5.67893C18.1425 4.75035 17.0401 4.01375 15.8268 3.5112C14.6136 3.00866 13.3132 2.75 12 2.75ZM10.289 20.543C9.1984 20.2939 8.17228 19.8185 7.27708 19.1476C6.38188 18.4767 5.63755 17.6253 5.0923 16.6485C4.54704 15.6717 4.21302 14.5912 4.11185 13.4771C4.01068 12.363 4.14462 11.2401 4.505 10.181L4.757 10.201C5.29011 10.4553 5.76197 10.8218 6.1403 11.2754C6.51863 11.7289 6.79449 12.2589 6.949 12.829C7.1152 13.4874 7.43449 14.0973 7.8809 14.6091C8.32731 15.1208 8.88822 15.52 9.518 15.774C10.726 16.331 10.979 17.893 10.289 20.543ZM14.079 11.25C14.0789 11.1701 14.0692 11.0905 14.05 11.013C13.869 10.1931 13.5102 9.42303 12.9989 8.75708C12.4876 8.09113 11.8363 7.54559 11.091 7.159C10.216 6.604 9.673 6.259 9.527 5.168C11.0839 4.64344 12.7647 4.61163 14.3403 5.07689C15.9159 5.54215 17.3098 6.48187 18.332 7.768C16.872 7.987 16.079 10.123 16.079 11.249C15.9722 11.4141 15.8231 11.5476 15.6473 11.6355C15.4714 11.7235 15.2752 11.7626 15.079 11.749C14.8829 11.7627 14.6868 11.7237 14.5109 11.636C14.335 11.5482 14.1859 11.4149 14.079 11.25ZM15.791 19.723L15.084 17.604C15.1181 17.1225 15.3252 16.6697 15.6671 16.3289C16.0089 15.9882 16.4624 15.7826 16.944 15.75L19.083 16.401C18.3437 17.8134 17.1967 18.9709 15.791 19.723Z" fill="#5B7CE2"/>
</g>
</svg>
