<svg width="40" height="41" viewBox="0 0 40 41" fill="none" xmlns="http://www.w3.org/2000/svg">
<rect y="0.382446" width="40" height="40" rx="20" fill="#EAEAEA"/>
<path d="M26.5369 19.0768H25.9999V19.0492H19.9999V21.7158H23.7676C23.2179 23.2682 21.7409 24.3825 19.9999 24.3825C17.7909 24.3825 15.9999 22.5915 15.9999 20.3825C15.9999 18.1735 17.7909 16.3825 19.9999 16.3825C21.0196 16.3825 21.9473 16.7672 22.6536 17.3955L24.5393 15.5098C23.3486 14.4002 21.7559 13.7158 19.9999 13.7158C16.3183 13.7158 13.3333 16.7008 13.3333 20.3825C13.3333 24.0642 16.3183 27.0492 19.9999 27.0492C23.6816 27.0492 26.6666 24.0642 26.6666 20.3825C26.6666 19.9355 26.6206 19.4992 26.5369 19.0768Z" fill="#FFC107"/>
<path d="M14.1021 17.2795L16.2924 18.8858C16.8851 17.4185 18.3204 16.3825 20.0001 16.3825C21.0197 16.3825 21.9474 16.7672 22.6537 17.3955L24.5394 15.5098C23.3487 14.4002 21.7561 13.7158 20.0001 13.7158C17.4394 13.7158 15.2187 15.1615 14.1021 17.2795Z" fill="#FF3D00"/>
<path d="M19.9999 27.0491C21.7219 27.0491 23.2866 26.3901 24.4696 25.3184L22.4063 23.5724C21.7145 24.0986 20.8691 24.3831 19.9999 24.3824C18.2659 24.3824 16.7936 23.2768 16.2389 21.7338L14.0649 23.4088C15.1683 25.5678 17.4089 27.0491 19.9999 27.0491Z" fill="#4CAF50"/>
<path d="M26.537 19.0767H26V19.0491H20V21.7157H23.7677C23.5047 22.4545 23.0311 23.1001 22.4053 23.5727L22.4063 23.5721L24.4697 25.3181C24.3237 25.4507 26.6667 23.7157 26.6667 20.3824C26.6667 19.9354 26.6207 19.4991 26.537 19.0767Z" fill="#1976D2"/>
</svg>
