<svg width="24" height="25" viewBox="0 0 24 25" fill="none" xmlns="http://www.w3.org/2000/svg">
<g id="Group">
<path id="Vector" d="M12.7031 11.0107C12.7031 11.2772 12.5528 11.5202 12.3145 11.6397L9.50198 13.046C9.15103 13.2202 8.73141 13.0762 8.55853 12.7315C8.38481 12.384 8.52558 11.9617 8.87302 11.788L11.2969 10.5761V7.49512H9.89062V9.60449C9.89062 9.99313 9.57614 10.3076 9.1875 10.3076C8.79886 10.3076 8.48438 9.99313 8.48438 9.60449V7.49512H7.07812V14.5264H9.1875C9.57614 14.5264 9.89062 14.8409 9.89062 15.2295C9.89062 15.6181 9.57614 15.9326 9.1875 15.9326H7.07812V17.3389H11.2969V13.8232C11.2969 13.5568 11.4472 13.3138 11.6855 13.1943L14.498 11.788C14.8462 11.615 15.267 11.7551 15.4415 12.1025C15.6152 12.4499 15.4744 12.8722 15.127 13.046L12.7031 14.2579V17.3389H14.1094V15.2295C14.1094 14.8409 14.4239 14.5264 14.8125 14.5264C15.2011 14.5264 15.5156 14.8409 15.5156 15.2295V17.3389H16.9219V10.3076H14.8125C14.4239 10.3076 14.1094 9.99313 14.1094 9.60449C14.1094 9.21585 14.4239 8.90137 14.8125 8.90137H16.9219V7.49512H12.7031V11.0107Z" fill="#4F6BBF"/>
<path id="Vector_2" d="M23.2969 7.49512C23.6855 7.49512 24 7.18063 24 6.79199C24 6.40335 23.6855 6.08887 23.2969 6.08887H21.1406V3.97949C21.1406 3.59085 20.8261 3.27637 20.4375 3.27637H18.3281V1.12012C18.3281 0.731477 18.0136 0.416992 17.625 0.416992C17.2364 0.416992 16.9219 0.731477 16.9219 1.12012V3.27637H15.5156V1.12012C15.5156 0.731477 15.2011 0.416992 14.8125 0.416992C14.4239 0.416992 14.1094 0.731477 14.1094 1.12012V3.27637H12.7031V1.12012C12.7031 0.731477 12.3886 0.416992 12 0.416992C11.6114 0.416992 11.2969 0.731477 11.2969 1.12012V3.27637H9.89062V1.12012C9.89062 0.731477 9.57614 0.416992 9.1875 0.416992C8.79886 0.416992 8.48438 0.731477 8.48438 1.12012V3.27637H7.07812V1.12012C7.07812 0.731477 6.76364 0.416992 6.375 0.416992C5.98636 0.416992 5.67188 0.731477 5.67188 1.12012V3.27637H3.5625C3.17386 3.27637 2.85938 3.59085 2.85938 3.97949V6.08887H0.703125C0.314484 6.08887 0 6.40335 0 6.79199C0 7.18063 0.314484 7.49512 0.703125 7.49512H2.85938V8.90137H0.703125C0.314484 8.90137 0 9.21585 0 9.60449C0 9.99313 0.314484 10.3076 0.703125 10.3076H2.85938V11.7139H0.703125C0.314484 11.7139 0 12.0284 0 12.417C0 12.8056 0.314484 13.1201 0.703125 13.1201H2.85938V14.5264H0.703125C0.314484 14.5264 0 14.8409 0 15.2295C0 15.6181 0.314484 15.9326 0.703125 15.9326H2.85938V17.3389H0.703125C0.314484 17.3389 0 17.6534 0 18.042C0 18.4306 0.314484 18.7451 0.703125 18.7451H2.85938V20.8545C2.85938 21.2431 3.17386 21.5576 3.5625 21.5576H5.67188V23.7139C5.67188 24.1025 5.98636 24.417 6.375 24.417C6.76364 24.417 7.07812 24.1025 7.07812 23.7139V21.5576H8.48438V23.7139C8.48438 24.1025 8.79886 24.417 9.1875 24.417C9.57614 24.417 9.89062 24.1025 9.89062 23.7139V21.5576H11.2969V23.7139C11.2969 24.1025 11.6114 24.417 12 24.417C12.3886 24.417 12.7031 24.1025 12.7031 23.7139V21.5576H14.1094V23.7139C14.1094 24.1025 14.4239 24.417 14.8125 24.417C15.2011 24.417 15.5156 24.1025 15.5156 23.7139V21.5576H16.9219V23.7139C16.9219 24.1025 17.2364 24.417 17.625 24.417C18.0136 24.417 18.3281 24.1025 18.3281 23.7139V21.5576H20.4375C20.8261 21.5576 21.1406 21.2431 21.1406 20.8545V18.7451H23.2969C23.6855 18.7451 24 18.4306 24 18.042C24 17.6534 23.6855 17.3389 23.2969 17.3389H21.1406V15.9326H23.2969C23.6855 15.9326 24 15.6181 24 15.2295C24 14.8409 23.6855 14.5264 23.2969 14.5264H21.1406V13.1201H23.2969C23.6855 13.1201 24 12.8056 24 12.417C24 12.0284 23.6855 11.7139 23.2969 11.7139H21.1406V10.3076H23.2969C23.6855 10.3076 24 9.99313 24 9.60449C24 9.21585 23.6855 8.90137 23.2969 8.90137H21.1406V7.49512H23.2969ZM18.3281 18.042C18.3281 18.4306 18.0136 18.7451 17.625 18.7451H6.375C5.98636 18.7451 5.67188 18.4306 5.67188 18.042V6.79199C5.67188 6.40335 5.98636 6.08887 6.375 6.08887H17.625C18.0136 6.08887 18.3281 6.40335 18.3281 6.79199V18.042Z" fill="#4F6BBF"/>
</g>
</svg>
