<svg width="27" height="25" viewBox="0 0 27 25" fill="none" xmlns="http://www.w3.org/2000/svg">
<g id="Group 1000002609">
<g id="Group">
<g id="Group_2">
<path id="Vector" d="M14.8474 13.2899C14.5517 13.2899 14.312 13.0502 14.312 12.7545V10.3076H11.7098V12.7545C11.7098 13.0502 11.4701 13.2899 11.1744 13.2899H8.72754V15.8867H11.1744C11.4701 15.8867 11.7098 16.1264 11.7098 16.4221V18.869H14.3066V16.4221C14.3066 16.1264 14.5463 15.8867 14.842 15.8867H17.2942V13.2899H14.8474Z" fill="#4F6BBF"/>
</g>
</g>
<g id="Group_3">
<g id="Group_4">
<path id="Vector_2" d="M22.327 5.22656H3.69439C1.99176 5.22656 0 6.19567 0 8.92095V20.5556C0 23.2809 1.99176 24.25 3.69439 24.25H22.327C24.0296 24.25 26.0213 23.2809 26.0213 20.5556V8.92095C26.0213 6.19567 24.0349 5.22656 22.327 5.22656ZM18.3649 16.1598C18.3649 16.6004 18.0077 16.9576 17.5671 16.9576H15.3826V19.1421C15.3826 19.5827 15.0254 19.9399 14.5848 19.9399H11.4365C10.996 19.9399 10.6388 19.5827 10.6388 19.1421V16.9576H8.45961C8.01903 16.9605 7.65943 16.6057 7.65649 16.1652C7.65649 16.1634 7.65649 16.1616 7.65649 16.1598V13.0169C7.65649 12.5763 8.01368 12.2191 8.45426 12.2191H10.6388V10.0346C10.6388 9.59404 10.996 9.23685 11.4365 9.23685H14.5794C15.02 9.23685 15.3772 9.59404 15.3772 10.0346V12.2191H17.5617C18.0023 12.2162 18.3619 12.571 18.3649 13.0115C18.3649 13.0134 18.3649 13.0151 18.3649 13.0169V16.1598Z" fill="#4F6BBF"/>
</g>
</g>
<g id="Group_5">
<g id="Group_6">
<path id="Vector_3" d="M16.4524 0.252537C16.3937 0.249191 16.3348 0.249191 16.276 0.252537H9.7439C8.88476 0.203881 8.14882 0.86084 8.10017 1.71992C8.09682 1.77868 8.09682 1.83751 8.10017 1.89627V4.30566H9.171L9.17636 1.89627C9.17636 1.741 9.17636 1.32337 9.74925 1.32337H16.276C16.8489 1.32337 16.8489 1.73565 16.8489 1.89627V4.30566H17.9197V1.89627C17.9685 1.03713 17.3114 0.30126 16.4524 0.252537Z" fill="#4F6BBF"/>
</g>
</g>
</g>
</svg>
