<svg width="12" height="13" viewBox="0 0 12 13" fill="none" xmlns="http://www.w3.org/2000/svg">
<path d="M6.02361 3.75006C6.04386 3.75034 6.06409 3.75078 6.08432 3.75137L6.08312 3.75257C6.06287 3.75137 6.0428 3.75048 6.02361 3.75006ZM1.662 7.22044C1.76407 7.42832 1.88621 7.62555 2.02658 7.80934L2.0137 7.82222C1.87129 7.63728 1.75313 7.43502 1.662 7.22044ZM5.75074 8.22894C5.70387 8.22104 5.65745 8.21093 5.61163 8.19865C5.64323 8.20712 5.67516 8.21457 5.70736 8.22097C5.7218 8.22384 5.73626 8.2265 5.75074 8.22894ZM4.55114 7.13813L4.55158 7.13978C4.54291 7.10755 4.53532 7.07509 4.52882 7.04243C4.52882 7.04243 4.52882 7.04243 4.52882 7.04243L4.52882 7.04243C4.53523 7.07463 4.54268 7.10655 4.55114 7.13813ZM10.4431 6.97932L10.4588 6.94613C10.421 7.06264 10.3535 7.22 10.2413 7.41092C10.051 7.73492 9.76111 8.10581 9.37446 8.45567C9.22533 8.59061 9.0626 8.72177 8.88647 8.84556C9.55432 8.36712 10.0908 7.72529 10.4431 6.97932ZM10.4184 6.49412C10.4303 6.51854 10.4405 6.54127 10.4494 6.56236L10.431 6.52838C10.32 6.32249 10.1925 6.12635 10.0501 5.94179C10.0859 5.98624 10.1215 6.0319 10.1561 6.07834C10.2644 6.22351 10.3558 6.36571 10.4184 6.49412ZM5.91541 9.74891L5.91571 9.7486C5.9344 9.74911 5.95334 9.74947 5.97244 9.74966C5.95343 9.74951 5.93441 9.74926 5.91541 9.74891ZM7.32329 7.45613C7.27536 7.54594 7.21817 7.63108 7.15234 7.71007C7.18607 7.66959 7.21775 7.62724 7.2472 7.58315C7.27473 7.54196 7.30011 7.49957 7.32329 7.45613ZM4.61418 6.17577L5.00007 6.33561L4.61418 6.17577C4.6119 6.18129 4.60965 6.18681 4.60743 6.19235C4.60965 6.18681 4.6119 6.18128 4.61418 6.17577ZM5.9821 5.2499C5.98807 5.24983 5.99404 5.24979 6.00001 5.24979C6 5.24979 6 5.24979 6 5.24979C5.99403 5.24979 5.98807 5.24983 5.9821 5.2499Z" fill="#111928" stroke="#6B7280"/>
</svg>
