<svg width="32" height="28" viewBox="0 0 32 28" fill="none" xmlns="http://www.w3.org/2000/svg">
<g id="Group">
<path id="Vector" d="M4.3748 22.6004C6.7748 22.6004 8.6998 20.6504 8.6998 18.2754H0.0498047C0.0498047 20.6504 1.9998 22.6004 4.3748 22.6004Z" fill="#4F6BBF"/>
<path id="Vector_2" d="M27.6004 22.6004C30.0004 22.6004 31.9254 20.6504 31.9254 18.2754H23.2754C23.2754 20.6504 25.2254 22.6004 27.6004 22.6004Z" fill="#4F6BBF"/>
<path id="Vector_3" d="M27.6246 9.72529L31.2496 17.5753H31.9996L27.9496 8.85029V6.55029H27.2746V8.87529C27.2496 8.90029 24.1496 15.6003 23.2246 17.5753H23.9746L27.6246 9.72529Z" fill="#4F6BBF"/>
<path id="Vector_4" d="M4.725 6.55029H4.05V8.85029L0 17.5753H0.75L4.4 9.72529L8.025 17.5753H8.775L4.725 8.85029V6.55029Z" fill="#4F6BBF"/>
<path id="Vector_5" d="M4.37539 5.90039C4.40039 5.90039 4.40039 5.90039 4.37539 5.90039C5.27539 5.90039 6.00039 5.17539 6.00039 4.27539C6.00039 3.37539 5.27539 2.65039 4.40039 2.65039C3.50039 2.65039 2.77539 3.37539 2.77539 4.27539C2.77539 5.17539 3.50039 5.90039 4.37539 5.90039Z" fill="#4F6BBF"/>
<path id="Vector_6" d="M6.57422 4.9251H9.52422C9.52422 4.9501 9.52422 3.6751 9.52422 3.6001H6.57422C6.69922 4.0501 6.69922 4.5001 6.57422 4.9251Z" fill="#4F6BBF"/>
<path id="Vector_7" d="M25.4244 4.9251C25.2994 4.5001 25.2994 4.0501 25.4244 3.6001H20.0244V4.9001H25.3494C25.3494 4.9251 25.3744 4.9251 25.4244 4.9251Z" fill="#4F6BBF"/>
<path id="Vector_8" d="M27.6 5.90039C27.625 5.90039 27.625 5.90039 27.6 5.90039C28.5 5.90039 29.225 5.17539 29.225 4.27539C29.225 3.37539 28.5 2.65039 27.625 2.65039C26.725 2.65039 26 3.37539 26 4.27539C26 5.17539 26.725 5.90039 27.6 5.90039Z" fill="#4F6BBF"/>
<path id="Vector_9" d="M11.4746 14.3003H18.2996V15.1253H11.4746V14.3003Z" fill="#4F6BBF"/>
<path id="Vector_10" d="M16 6.4252C16.2 6.4252 16.4 6.35019 16.575 6.20019C16.475 5.9002 16.4 5.60019 16.4 5.27519C16.4 5.10019 16.55 4.9252 16.75 4.9252H16.9C16.9 4.7502 16.9 2.2252 16.9 1.8502C16.9 1.3502 16.5 0.950195 16.025 0.950195C15.5 0.950195 15.125 1.3752 15.125 1.8502V5.52519C15.125 6.02519 15.5 6.4252 16 6.4252Z" fill="#4F6BBF"/>
<path id="Vector_11" d="M17.5752 4.92539H19.3502V2.82539C19.3502 2.37539 19.0502 1.97539 18.6252 1.90039C18.1002 1.80039 17.5752 2.22539 17.5752 2.77539V2.80039V4.92539Z" fill="#4F6BBF"/>
<path id="Vector_12" d="M19.6004 5.6251H17.1004C17.2504 6.5751 18.1004 7.3251 19.1004 7.3251H19.6754C19.8504 7.3251 20.0254 7.4751 20.0254 7.6751V9.4751C20.0254 9.6501 19.8754 9.8251 19.6754 9.8251C19.4754 9.8251 19.3254 9.6751 19.3254 9.4751V8.0001H19.1004C18.1754 8.0001 17.3754 7.5251 16.8754 6.8251C16.6254 7.0001 16.3004 7.1001 15.9754 7.1001C15.6004 7.1001 15.2754 6.9751 15.0004 6.7751C14.8004 7.4001 14.2254 7.8751 13.5004 7.8751C12.7504 7.8751 12.1254 7.3501 11.9754 6.6251C11.6254 6.8751 11.2004 6.9751 10.7754 6.9001C10.5504 6.8501 10.3504 6.7751 10.1504 6.6251V10.9001C10.1504 11.9251 10.5254 12.8751 11.2254 13.6251H18.4504L21.3754 10.7001C21.6004 10.4751 21.7254 10.1501 21.7254 9.8251C21.7254 7.7501 21.7254 7.5251 21.7254 5.6001L19.6004 5.6251Z" fill="#4F6BBF"/>
<path id="Vector_13" d="M13.5499 7.1752C14.0749 7.1752 14.4499 6.7502 14.4499 6.27519C14.4499 4.92519 14.4499 3.8252 14.4499 2.6002C14.4499 2.1002 14.0499 1.7002 13.5499 1.7002C13.0749 1.7002 12.6749 2.0752 12.6749 2.6002V6.27519C12.6499 6.77519 13.0499 7.1752 13.5499 7.1752Z" fill="#4F6BBF"/>
<path id="Vector_14" d="M10.9502 6.2252C11.5002 6.3252 12.0002 5.9002 12.0002 5.3502V3.4752C12.0002 2.9752 11.6002 2.5752 11.1002 2.5752C10.5752 2.5752 10.2002 3.0002 10.2002 3.4752C10.2002 3.3752 10.2002 5.2752 10.2002 5.3002C10.2002 5.7502 10.5252 6.1502 10.9502 6.2252Z" fill="#4F6BBF"/>
<path id="Vector_15" d="M18.6506 15.8003H11.1256C11.0506 15.8003 10.9756 15.8753 10.9756 15.9503V27.0503H18.8006V15.9503C18.8006 15.8753 18.7256 15.8003 18.6506 15.8003Z" fill="#4F6BBF"/>
</g>
</svg>
