<svg width="24" height="24" viewBox="0 0 24 24" fill="none" xmlns="http://www.w3.org/2000/svg">
<g id="Industry">
<path id="Icon" fill-rule="evenodd" clip-rule="evenodd" d="M2.5 3C2.22386 3 2 3.22386 2 3.5V18.5C2 18.7761 2.22386 19 2.5 19H12V14C12 13.4477 12.4477 13 13 13H17C17.5523 13 18 13.4477 18 14V19H21.5C21.7761 19 22 18.7761 22 18.5V5.35492L14 9.85492V5.30902L5 9.80902V3.5C5 3.22386 4.77614 3 4.5 3H2.5ZM1 3.5C1 2.67157 1.67157 2 2.5 2H4.5C5.32843 2 6 2.67157 6 3.5V8.19098L13.5528 4.41459C14.2177 4.08214 15 4.56563 15 5.30902V8.14508L21.5097 4.48335C22.1763 4.10838 23 4.59009 23 5.35492V18.5C23 19.3284 22.3284 20 21.5 20H2.5C1.67157 20 1 19.3284 1 18.5V3.5ZM13 14V19H17V14H13Z" fill="#5B7CE2"/>
</g>
</svg>
