<svg width="24" height="25" viewBox="0 0 24 25" fill="none" xmlns="http://www.w3.org/2000/svg">
<g id="Group">
<path id="Vector" d="M10.5412 7.14258V11.2372C10.0918 11.4136 0.814588 15.0579 0 15.3783V24.0838H3.01176V15.8955H8.94118V24.0838H24V7.14258H10.5412ZM15.0118 19.1426H13.6V17.7308H15.0118V19.1426ZM15.0118 16.1308H13.6V14.719H15.0118V16.1308ZM15.0118 13.119H13.6V11.7073H15.0118V13.119ZM15.0118 10.1073H13.6V8.69552H15.0118V10.1073ZM18.0235 19.1426H16.6118V17.7308H18.0235V19.1426ZM18.0235 16.1308H16.6118V14.719H18.0235V16.1308ZM18.0235 13.119H16.6118V11.7073H18.0235V13.119ZM18.0235 10.1073H16.6118V8.69552H18.0235V10.1073ZM20.9412 19.1426H19.5294V17.7308H20.9412V19.1426ZM20.9412 16.1308H19.5294V14.719H20.9412V16.1308ZM20.9412 13.119H19.5294V11.7073H20.9412V13.119ZM20.9412 10.1073H19.5294V8.69552H20.9412V10.1073Z" fill="#4F6BBF"/>
<path id="Vector_2" d="M4.42285 20.6953H7.52873V24.0835H4.42285V20.6953Z" fill="#4F6BBF"/>
<path id="Vector_3" d="M4.42285 17.3076H7.52873V19.2841H4.42285V17.3076Z" fill="#4F6BBF"/>
<path id="Vector_4" d="M8.94113 7.98919H8.18819V4.50684C7.23412 4.50684 4.65374 4.50684 3.76466 4.50684V7.98919H3.01172V12.6777C6.54475 11.2904 5.40762 11.7362 8.94113 10.3487V7.98919Z" fill="#4F6BBF"/>
<path id="Vector_5" d="M8.18818 0.0839844H3.76465V3.09575H8.18818V0.0839844Z" fill="#4F6BBF"/>
<path id="Vector_6" d="M22.4939 2.71973H12.0469V5.73149H22.4939V2.71973Z" fill="#4F6BBF"/>
</g>
</svg>
