<svg width="17" height="18" viewBox="0 0 17 18" fill="none" xmlns="http://www.w3.org/2000/svg">
<g id="info">
<path id="Vector" d="M8.50033 1.91699C7.09938 1.91699 5.72989 2.33242 4.56504 3.11075C3.40019 3.88908 2.4923 4.99534 1.95618 6.28965C1.42006 7.58396 1.27979 9.00818 1.5531 10.3822C1.82641 11.7562 2.50103 13.0184 3.49166 14.009C4.48228 14.9996 5.74441 15.6742 7.11844 15.9475C8.49247 16.2209 9.91669 16.0806 11.211 15.5445C12.5053 15.0083 13.6116 14.1005 14.3899 12.9356C15.1682 11.7708 15.5837 10.4013 15.5837 9.00032C15.5816 7.12234 14.8347 5.32186 13.5067 3.99393C12.1788 2.66599 10.3783 1.91905 8.50033 1.91699ZM8.14616 4.75032C8.3563 4.75032 8.56173 4.81264 8.73645 4.92939C8.91118 5.04614 9.04736 5.21208 9.12778 5.40622C9.2082 5.60037 9.22924 5.814 9.18825 6.02011C9.14725 6.22621 9.04606 6.41553 8.89746 6.56413C8.74887 6.71272 8.55955 6.81391 8.35344 6.85491C8.14734 6.89591 7.93371 6.87486 7.73956 6.79445C7.54541 6.71403 7.37947 6.57784 7.26272 6.40312C7.14598 6.22839 7.08366 6.02297 7.08366 5.81282C7.08366 5.53103 7.1956 5.26078 7.39486 5.06152C7.59412 4.86227 7.86437 4.75032 8.14616 4.75032ZM9.91699 12.542H7.08366C6.8958 12.542 6.71563 12.4674 6.58279 12.3345C6.44996 12.2017 6.37533 12.0215 6.37533 11.8337C6.37533 11.6458 6.44996 11.4656 6.58279 11.3328C6.71563 11.2 6.8958 11.1253 7.08366 11.1253H7.79199V9.00032H7.08366C6.8958 9.00032 6.71563 8.92569 6.58279 8.79286C6.44996 8.66002 6.37533 8.47985 6.37533 8.29199C6.37533 8.10413 6.44996 7.92396 6.58279 7.79112C6.71563 7.65828 6.8958 7.58366 7.08366 7.58366H8.50033C8.68819 7.58366 8.86836 7.65828 9.00119 7.79112C9.13403 7.92396 9.20866 8.10413 9.20866 8.29199V11.1253H9.91699C10.1049 11.1253 10.285 11.2 10.4179 11.3328C10.5507 11.4656 10.6253 11.6458 10.6253 11.8337C10.6253 12.0215 10.5507 12.2017 10.4179 12.3345C10.285 12.4674 10.1049 12.542 9.91699 12.542Z" fill="#9CA3AF"/>
</g>
</svg>
