<svg width="12" height="15" viewBox="0 0 12 15" fill="none" xmlns="http://www.w3.org/2000/svg">
<path id="Line 17" d="M6.53033 0.59467C6.23744 0.301777 5.76256 0.301777 5.46967 0.59467L0.696699 5.36764C0.403806 5.66053 0.403806 6.13541 0.696699 6.4283C0.989593 6.72119 1.46447 6.72119 1.75736 6.4283L6 2.18566L10.2426 6.4283C10.5355 6.72119 11.0104 6.72119 11.3033 6.4283C11.5962 6.13541 11.5962 5.66053 11.3033 5.36764L6.53033 0.59467ZM5.25 14.125C5.25 14.5392 5.58579 14.875 6 14.875C6.41421 14.875 6.75 14.5392 6.75 14.125H5.25ZM5.25 1.125L5.25 14.125H6.75L6.75 1.125H5.25Z" fill="#2CAB80"/>
</svg>
