<svg width="40" height="41" viewBox="0 0 40 41" fill="none" xmlns="http://www.w3.org/2000/svg">
<rect y="0.382446" width="40" height="40" rx="20" fill="#006FFD"/>
<mask id="mask0_1607_160049" style="mask-type:alpha" maskUnits="userSpaceOnUse" x="12" y="12" width="16" height="16">
<path d="M15.9964 27.0491V17.1535H12.8527V27.0491H15.9964ZM14.425 15.8017C15.5212 15.8017 16.2036 15.0418 16.2036 14.0922C16.1832 13.1212 15.5213 12.3824 14.4458 12.3824C13.3704 12.3824 12.6672 13.1212 12.6672 14.0922C12.6672 15.0418 13.3494 15.8017 14.4044 15.8017H14.425ZM17.7364 27.0491H20.8801V21.5229C20.8801 21.2272 20.9005 20.9317 20.9836 20.7203C21.2108 20.1294 21.7281 19.5174 22.5965 19.5174C23.7341 19.5174 24.1892 20.4249 24.1892 21.7551V27.049H27.3327V21.375C27.3327 18.3355 25.7817 16.9212 23.7134 16.9212C22.0175 16.9212 21.2729 17.913 20.8592 18.5885H20.8802V17.1533H17.7365C17.7778 18.0819 17.7364 27.0491 17.7364 27.0491Z" fill="white"/>
</mask>
<g mask="url(#mask0_1607_160049)">
<rect x="12" y="12.3824" width="16" height="16" fill="white"/>
</g>
</svg>
