<svg width="16" height="17" viewBox="0 0 16 17" fill="none" xmlns="http://www.w3.org/2000/svg">
<path d="M10.4998 6.95V7.45H10.9998H11.9998C12.2369 7.45 12.4549 7.53522 12.6082 7.67312C12.7596 7.80945 12.8332 7.98237 12.8332 8.15V13.55C12.8332 13.7176 12.7596 13.8905 12.6082 14.0269C12.4549 14.1648 12.2369 14.25 11.9998 14.25H3.99984C3.76281 14.25 3.54473 14.1648 3.39151 14.0269C3.24003 13.8905 3.1665 13.7176 3.1665 13.55V8.15C3.1665 7.98237 3.24003 7.80945 3.39151 7.67312C3.54473 7.53522 3.76281 7.45 3.99984 7.45H4.99984H5.49984V6.95V5.45C5.49984 4.88454 5.74896 4.3301 6.213 3.91246C6.67878 3.49326 7.32079 3.25 7.99984 3.25C8.67889 3.25 9.3209 3.49326 9.78667 3.91246L10.1148 3.54788L9.78667 3.91246C10.2507 4.3301 10.4998 4.88454 10.4998 5.45V6.95ZM7.19395 12.5459L7.52843 12.1743L7.19395 12.5459C7.41581 12.7456 7.70643 12.85 7.99984 12.85C8.29325 12.85 8.58387 12.7456 8.80572 12.5459L8.47124 12.1743L8.80573 12.5459C9.02932 12.3447 9.1665 12.0598 9.1665 11.75V9.95C9.1665 9.64024 9.02932 9.35532 8.80572 9.15409C8.58387 8.95442 8.29325 8.85 7.99984 8.85C7.70643 8.85 7.4158 8.95442 7.19395 9.15409C6.97036 9.35532 6.83317 9.64024 6.83317 9.95V11.75C6.83317 12.0598 6.97036 12.3447 7.19395 12.5459ZM9.6665 7.45H10.1665V6.95V5.45C10.1665 4.90155 9.92396 4.38771 9.51283 4.01769C9.10344 3.64924 8.55846 3.45 7.99984 3.45C7.44121 3.45 6.89623 3.64924 6.48684 4.01769C6.07571 4.38771 5.83317 4.90155 5.83317 5.45V6.95V7.45H6.33317H9.6665Z" fill="#6B7280" stroke="#6B7280"/>
</svg>
