<svg width="24" height="25" viewBox="0 0 24 25" fill="none" xmlns="http://www.w3.org/2000/svg">
<g id="Group 1000002611">
<path id="Vector" d="M23.2969 13.5H13.4531C13.0646 13.5 12.75 13.8146 12.75 14.2031V24.0469C12.75 24.4354 13.0646 24.75 13.4531 24.75H23.2969C23.6854 24.75 24 24.4354 24 24.0469V14.2031C24 13.8146 23.6854 13.5 23.2969 13.5Z" fill="#4F6BBF"/>
<path id="Vector_2" d="M10.5469 0.75H0.703125C0.314575 0.75 0 1.06458 0 1.45313V11.2969C0 11.6854 0.314575 12 0.703125 12H10.5469C10.9354 12 11.25 11.6854 11.25 11.2969V1.45313C11.25 1.06458 10.9354 0.75 10.5469 0.75ZM2.8125 9.89063C2.42413 9.89063 2.10938 9.57587 2.10938 9.1875C2.10938 8.79913 2.42413 8.48438 2.8125 8.48438C3.20087 8.48438 3.51562 8.79913 3.51562 9.1875C3.51562 9.57587 3.20087 9.89063 2.8125 9.89063ZM2.8125 7.07813C2.42413 7.07813 2.10938 6.76337 2.10938 6.375C2.10938 5.98663 2.42413 5.67188 2.8125 5.67188C3.20087 5.67188 3.51562 5.98663 3.51562 6.375C3.51562 6.76337 3.20087 7.07813 2.8125 7.07813ZM2.8125 4.26563C2.42413 4.26563 2.10938 3.95087 2.10938 3.5625C2.10938 3.17413 2.42413 2.85938 2.8125 2.85938C3.20087 2.85938 3.51562 3.17413 3.51562 3.5625C3.51562 3.95087 3.20087 4.26563 2.8125 4.26563ZM5.625 9.89063C5.23663 9.89063 4.92188 9.57587 4.92188 9.1875C4.92188 8.79913 5.23663 8.48438 5.625 8.48438C6.01337 8.48438 6.32812 8.79913 6.32812 9.1875C6.32812 9.57587 6.01337 9.89063 5.625 9.89063ZM5.625 7.07813C5.23663 7.07813 4.92188 6.76337 4.92188 6.375C4.92188 5.98663 5.23663 5.67188 5.625 5.67188C6.01337 5.67188 6.32812 5.98663 6.32812 6.375C6.32812 6.76337 6.01337 7.07813 5.625 7.07813ZM5.625 4.26563C5.23663 4.26563 4.92188 3.95087 4.92188 3.5625C4.92188 3.17413 5.23663 2.85938 5.625 2.85938C6.01337 2.85938 6.32812 3.17413 6.32812 3.5625C6.32812 3.95087 6.01337 4.26563 5.625 4.26563ZM8.4375 9.89063C8.04913 9.89063 7.73438 9.57587 7.73438 9.1875C7.73438 8.79913 8.04913 8.48438 8.4375 8.48438C8.82587 8.48438 9.14062 8.79913 9.14062 9.1875C9.14062 9.57587 8.82587 9.89063 8.4375 9.89063ZM8.4375 7.07813C8.04913 7.07813 7.73438 6.76337 7.73438 6.375C7.73438 5.98663 8.04913 5.67188 8.4375 5.67188C8.82587 5.67188 9.14062 5.98663 9.14062 6.375C9.14062 6.76337 8.82587 7.07813 8.4375 7.07813ZM8.4375 4.26563C8.04913 4.26563 7.73438 3.95087 7.73438 3.5625C7.73438 3.17413 8.04913 2.85938 8.4375 2.85938C8.82587 2.85938 9.14062 3.17413 9.14062 3.5625C9.14062 3.95087 8.82587 4.26563 8.4375 4.26563Z" fill="#4F6BBF"/>
<path id="Vector_3" d="M21.0172 0.75L12.75 9.01721V11.0057L23.0057 0.75H21.0172Z" fill="#4F6BBF"/>
<path id="Vector_4" d="M23.2963 11.9994C23.6848 11.9994 23.9994 11.6848 23.9994 11.2963V5.7207L17.7207 11.9994H23.2963Z" fill="#4F6BBF"/>
<path id="Vector_5" d="M13.7441 11.9999H15.7327L23.9999 3.73267V1.74414L13.7441 11.9999Z" fill="#4F6BBF"/>
<path id="Vector_6" d="M13.4536 0.75C13.065 0.75 12.7598 1.06458 12.7598 1.45313V7.02869L19.0291 0.75H13.4536Z" fill="#4F6BBF"/>
<path id="Vector_7" d="M5.97382 18.6808C5.7583 18.8044 5.49188 18.8044 5.27618 18.6808L3.16406 17.4736L0 19.2816V21.1782L2.81525 19.5693C3.03094 19.4457 3.29736 19.4457 3.51288 19.5693L5.625 20.7765L7.73712 19.5693C7.95282 19.4457 8.21924 19.4457 8.43475 19.5693L11.25 21.178V19.2818L8.08594 17.4736L5.97382 18.6808Z" fill="#4F6BBF"/>
<path id="Vector_8" d="M10.5469 13.5H0.703125C0.314575 13.5 0 13.8146 0 14.2031V17.6622L2.81525 16.0536C3.03094 15.93 3.29736 15.93 3.51288 16.0536L5.625 17.2608L7.73712 16.0536C7.95282 15.93 8.21924 15.93 8.43475 16.0536L11.25 17.6622V14.2031C11.25 13.8146 10.9354 13.5 10.5469 13.5Z" fill="#4F6BBF"/>
<path id="Vector_9" d="M5.97382 22.1965C5.7583 22.3201 5.49188 22.3201 5.27618 22.1965L3.16406 20.9893L0 22.7976V24.0469C0 24.4355 0.314575 24.7501 0.703125 24.7501H10.5469C10.9354 24.7501 11.25 24.4355 11.25 24.0469V22.7974L8.08594 20.9893L5.97382 22.1965Z" fill="#4F6BBF"/>
</g>
</svg>
