<svg width="32" height="32" viewBox="0 0 32 32" fill="none" xmlns="http://www.w3.org/2000/svg">
<g id="002---No-Meat">
<path id="Shape" d="M17.0258 21.431L13.5793 19.3574C13.0397 19.0415 12.4161 18.8992 11.7929 18.9495C10.2305 18.9495 9.96052 20.0984 8.00178 20.0984C6.88154 20.1301 5.79888 19.6929 5.01484 18.8921C5.01484 20.0409 4.89422 20.8968 5.58926 21.8158C6.15665 22.5741 7.06133 23.0038 8.00753 22.9647C9.73076 22.9647 9.5412 21.8158 12.1146 21.8158C12.8395 21.8168 13.5505 22.0154 14.171 22.3903L17.6174 24.4639C19.4461 25.5231 21.6987 25.5362 23.5396 24.4983L21.3798 22.3443C19.8672 22.5339 18.3347 22.2124 17.0258 21.431Z" fill="#4F6BBF"/>
<path id="Shape_2" d="M26.8423 18.9033C25.8973 20.4192 24.4369 21.5431 22.7295 22.0683L24.5102 23.849C25.9975 22.6396 26.8554 20.8203 26.8423 18.9033Z" fill="#4F6BBF"/>
<path id="Shape_3" d="M9.47306 10.4363L8.63441 9.59766C6.51484 11.0337 5.01562 13.0441 5.01562 15.5026C5.01562 16.4332 5.01562 17.0076 5.59004 17.8002C6.54381 19.0488 8.30293 19.3429 9.61091 18.4723C10.3488 17.983 11.2258 17.7471 12.1096 17.8002C12.8351 17.7973 13.5471 17.9962 14.166 18.3747L17.6125 20.4425C18.4176 20.9291 19.3321 21.2056 20.272 21.2467L10.3117 11.2692C9.17427 11.9065 8.24636 12.8603 7.64068 14.0149C7.56508 14.2147 7.38479 14.3561 7.17267 14.3819C6.96055 14.4076 6.75166 14.3135 6.63042 14.1376C6.50919 13.9616 6.49564 13.7329 6.59526 13.5439C7.23907 12.2551 8.23747 11.177 9.47306 10.4363Z" fill="#4F6BBF"/>
<path id="Shape_4" d="M17.0259 25.4457C13.0051 23.0447 13.2061 22.97 11.7931 22.97C10.1675 22.97 10.0698 24.1188 7.87557 24.1188C5.6549 24.1188 3.85469 22.3186 3.85469 20.0979V15.5027C3.85469 12.6766 5.50325 10.4249 7.82387 8.79353L4.16488 5.12305C-1.59282 11.4775 -1.35266 21.2317 4.71078 27.2951C10.7742 33.3585 20.5283 33.5987 26.8828 27.841L24.3727 25.3366C22.1341 26.7346 19.3051 26.7766 17.0259 25.4457Z" fill="#4F6BBF"/>
<path id="Shape_5" d="M17.6528 6.88672C14.854 6.92679 12.1066 7.6442 9.64551 8.97758L10.5014 9.83919C11.8151 9.16392 13.214 8.66927 14.6601 8.3687C14.9774 8.30208 15.2885 8.50525 15.3552 8.82248C15.4218 9.13972 15.2186 9.4509 14.9014 9.51752C13.6694 9.76288 12.4717 10.1563 11.3343 10.6893L21.7886 21.1206C24.7309 20.52 26.844 17.9315 26.8434 14.9285C26.8434 10.046 23.2361 6.88672 17.6528 6.88672ZM17.6528 9.18436H17.0784C16.772 9.18475 16.5193 8.94464 16.504 8.63867C16.4961 8.48142 16.5531 8.32782 16.6617 8.21381C16.7703 8.09979 16.9209 8.03534 17.0784 8.03554H17.6528C17.97 8.03554 18.2272 8.29271 18.2272 8.60995C18.2272 8.92719 17.97 9.18436 17.6528 9.18436ZM21.0993 16.0773C19.5131 16.0773 18.2272 14.7914 18.2272 13.2052C18.2272 11.619 19.5131 10.3332 21.0993 10.3332C22.6855 10.3332 23.9713 11.619 23.9713 13.2052C23.9713 14.7914 22.6855 16.0773 21.0993 16.0773Z" fill="#4F6BBF"/>
<path id="Shape_6" d="M15.9286 -0.00634703C11.8617 -0.00748712 7.94617 1.53654 4.97461 4.31323L8.82316 8.16178C11.5138 6.62044 14.5514 5.78645 17.6519 5.73776C23.8383 5.73776 27.9913 9.43123 27.9913 14.9283V18.9492C27.9886 21.1524 27.0132 23.242 25.326 24.6589L27.6926 27.0312C32.0495 22.3471 33.2162 15.5263 30.664 9.66035C28.1117 3.79441 22.3258 -0.0013053 15.9286 -0.00634703Z" fill="#4F6BBF"/>
<path id="Oval" d="M21.0982 14.9284C22.0499 14.9284 22.8215 14.1569 22.8215 13.2052C22.8215 12.2535 22.0499 11.4819 21.0982 11.4819C20.1465 11.4819 19.375 12.2535 19.375 13.2052C19.375 14.1569 20.1465 14.9284 21.0982 14.9284Z" fill="#4F6BBF"/>
</g>
</svg>
