<svg width="32" height="32" viewBox="0 0 32 32" fill="none" xmlns="http://www.w3.org/2000/svg">
<g id="Group">
<path id="Vector" d="M11.2939 12.5889H8.27308L7.54199 16.1519H14.8568L11.2939 12.5889Z" fill="#4F6BBF"/>
<path id="Vector_2" d="M12.1184 10.5972H21.6964V10.047C21.6964 9.497 22.1423 9.0511 22.6923 9.0511C23.2424 9.0511 23.6882 9.497 23.6882 10.047V10.5972H27.3537C27.894 10.5972 28.4032 10.8602 28.7161 11.3006C29.0289 11.7411 29.1095 12.3085 28.9315 12.8186L28.1664 15.0124C27.9102 15.7469 27.2155 16.2404 26.4376 16.2404H25.0049L24.7872 16.8023C24.4763 17.6047 23.6894 18.1438 22.8288 18.1438H19.665L28.0482 26.5269C30.5084 23.7134 31.9996 20.031 31.9996 15.9999C31.9996 7.16347 24.8362 0 15.9996 0C11.9686 0 8.2862 1.49125 5.47266 3.95147L12.1184 10.5972Z" fill="#4F6BBF"/>
<path id="Vector_3" d="M11.5631 23.5408C11.6036 23.5408 11.6395 23.5135 11.6503 23.4744L13.1234 18.1436H10.3286L8.81055 23.5408H11.5631Z" fill="#4F6BBF"/>
<path id="Vector_4" d="M18.4035 19.6987C17.3291 20.8725 15.8281 21.6207 14.197 21.7349L13.5697 24.0051C13.3211 24.9045 12.4957 25.5327 11.5626 25.5327H8.25463C7.75843 25.5327 7.30197 25.3058 7.00234 24.9103C6.7027 24.5147 6.60795 24.0139 6.74233 23.5362L8.25907 18.1437H7.08559C6.59695 18.1437 6.13949 17.9265 5.83067 17.5478C5.52178 17.1691 5.4009 16.6774 5.49909 16.1986L6.32618 12.1675C6.51294 11.2576 7.32272 10.5971 8.25163 10.5971H9.30205L4.05791 5.35303C1.53444 8.18145 0 11.9112 0 15.9999C0 24.8365 7.1634 31.9999 16 31.9999C20.0887 31.9999 23.8185 30.4655 26.6469 27.942L18.4035 19.6987Z" fill="#4F6BBF"/>
<path id="Vector_5" d="M22.8299 16.1518C22.8744 16.1518 22.915 16.1239 22.931 16.0826L23.3952 14.8845C23.5438 14.5011 23.9127 14.2484 24.3238 14.2484H26.3244L26.9031 12.5889H14.1113L17.6743 16.1518H22.8299Z" fill="#4F6BBF"/>
<path id="Vector_6" d="M16.9931 18.2887L16.8479 18.1436H15.1888L14.7764 19.6358C15.6383 19.4245 16.4127 18.9503 16.9931 18.2887Z" fill="#4F6BBF"/>
</g>
</svg>
