<svg width="32" height="32" viewBox="0 0 32 32" fill="none" xmlns="http://www.w3.org/2000/svg">
<g id="Group">
<path id="Vector" d="M10.876 12.9599C10.876 14.1265 11.8251 15.0756 12.9916 15.0756C14.1582 15.0756 15.1072 14.1265 15.1072 12.9599C15.1072 11.7933 14.1581 10.8442 12.9916 10.8442C11.825 10.8442 10.876 11.7933 10.876 12.9599Z" fill="#4F6BBF"/>
<path id="Vector_2" d="M16.8701 12.0224H19.6904C19.4487 10.3173 18.5567 8.75278 17.2113 7.67383L15.7734 10.1023C16.3035 10.6185 16.6907 11.2802 16.8701 12.0224Z" fill="#4F6BBF"/>
<path id="Vector_3" d="M19.8301 25.9131C19.8301 29.2683 22.5598 31.998 25.915 31.998C29.2702 31.998 32 29.2683 32 25.9131C32 22.5579 29.2702 19.8281 25.915 19.8281C22.5598 19.8281 19.8301 22.5579 19.8301 25.9131ZM22.376 23.6991L23.7016 22.3735L25.9178 24.5897L28.134 22.3735L29.4596 23.6991L27.2434 25.9153L29.4596 28.1315L28.134 29.4571L25.9178 27.2409L23.7016 29.4571L22.376 28.1315L24.5922 25.9153L22.376 23.6991Z" fill="#4F6BBF"/>
<path id="Vector_4" d="M8.85412 7.60791C7.46072 8.6883 6.53849 10.2777 6.29297 12.0221H9.11357C9.29798 11.2591 9.70204 10.5814 10.2551 10.0593L8.85412 7.60791Z" fill="#4F6BBF"/>
<path id="Vector_5" d="M24.9746 18.0095C25.6237 16.4654 25.9832 14.7708 25.9832 12.9935C25.9832 5.82995 20.1552 0.00195312 12.9916 0.00195312C5.82812 0.00195312 0 5.82988 0 12.9935C0 20.1571 5.82806 25.985 12.9916 25.985C14.7701 25.985 16.466 25.625 18.011 24.975C18.4404 21.3353 21.3351 18.4399 24.9746 18.0095ZM8.58879 20.3933L7.78393 19.9153L10.2103 15.8171C9.68012 15.3009 9.29287 14.6392 9.11346 13.8969H4.35248V12.9596C4.35248 9.86929 6.01996 6.99494 8.70409 5.45819L9.51821 4.99214L11.8815 9.12747C12.2342 9.02518 12.6063 8.96919 12.9916 8.96919C13.3985 8.96919 13.7913 9.03074 14.1613 9.14447L16.5873 5.04701L17.3942 5.52587C18.6609 6.2775 19.722 7.34745 20.4627 8.61999C21.2269 9.93259 21.6307 11.4332 21.6307 12.9596V13.8969H16.8696C16.6852 14.6598 16.2811 15.3375 15.7281 15.8596L18.0919 19.9956L17.2791 20.461C15.979 21.2053 14.4965 21.5988 12.9916 21.5988C11.4394 21.5988 9.91683 21.1819 8.58879 20.3933Z" fill="#4F6BBF"/>
<path id="Vector_6" d="M12.9909 16.9501C12.5841 16.9501 12.1914 16.8886 11.8213 16.7749L10.3838 19.2029C11.2048 19.5457 12.0913 19.7243 12.991 19.7243C13.854 19.7243 14.7072 19.5593 15.5015 19.2424L14.101 16.7918C13.7483 16.8941 13.3762 16.9501 12.9909 16.9501Z" fill="#4F6BBF"/>
</g>
</svg>
