<svg width="32" height="32" viewBox="0 0 32 32" fill="none" xmlns="http://www.w3.org/2000/svg">
<g id="Group 1000002671">
<path id="Vector" d="M16 0C7.17176 0 0 7.17176 0 16C0 24.8282 7.17176 32 16 32C24.8282 32 32 24.8282 32 16C32 7.17176 24.8282 0 16 0ZM16 1.88235C19.5576 1.88235 22.7953 3.21882 25.28 5.38353L20.8941 9.76941C19.6894 8.39529 17.9576 7.52941 16 7.52941C13.2141 7.52941 10.8424 9.28 9.88235 11.7271L8.05647 10.5035C7.62353 10.2212 7.04 10.3341 6.75765 10.7671C6.47529 11.2 6.58824 11.7835 7.02118 12.0659L9.46824 13.7035C9.44941 14.08 9.43059 13.5153 9.43059 15.0588H6.60706C6.08 15.0588 5.66588 15.4729 5.66588 16C5.66588 16.5271 6.08 16.9412 6.60706 16.9412H9.43059C9.43059 17.28 9.46824 18.1459 9.46824 18.2965L7.02118 19.9341C6.58824 20.2165 6.47529 20.8 6.75765 21.2329C7.04 21.6659 7.64235 21.7788 8.05647 21.4965L9.88235 20.2729C9.93882 20.3859 9.99529 20.4988 10.0518 20.6118L5.38353 25.28C3.2 22.7953 1.88235 19.5576 1.88235 16C1.88235 8.20706 8.20706 1.88235 16 1.88235ZM16 30.1176C12.4424 30.1176 9.20471 28.7812 6.72 26.6165L11.1059 22.2306L21.9671 11.3694L26.6165 6.72C28.8 9.20471 30.1176 12.4424 30.1176 16C30.1176 23.7929 23.7929 30.1176 16 30.1176Z" fill="#4F6BBF"/>
<path id="Vector_2" d="M25.4114 15.0587H22.5879C22.5879 14.7199 22.5503 13.854 22.5503 13.7034L24.9973 12.0657C25.4303 11.7834 25.5432 11.1999 25.2608 10.7669C25.035 10.4469 24.6585 10.2963 24.3008 10.3716L11.7832 22.8893C12.9314 23.8681 14.3997 24.4705 16.0185 24.4705C18.8044 24.4705 21.1761 22.7199 22.1361 20.2728L23.962 21.4963C24.395 21.7787 24.9785 21.6657 25.2608 21.2328C25.5432 20.7999 25.4303 20.2163 24.9973 19.934L22.5503 18.2963C22.6256 17.1105 22.5691 17.4493 22.5879 16.941H25.4114C25.9385 16.941 26.3526 16.5269 26.3526 15.9999C26.3526 15.4728 25.9385 15.0587 25.4114 15.0587Z" fill="#4F6BBF"/>
</g>
</svg>
