<svg width="24" height="25" viewBox="0 0 24 25" fill="none" xmlns="http://www.w3.org/2000/svg">
<g id="Page-1">
<g id="020---House-Agreement">
<path id="Shape" d="M16.228 13.18C16.5763 13.4268 17.0243 13.4846 17.4238 13.3343L18.5811 12.9057L18.1525 12.1085C17.8655 11.6076 17.9834 10.9727 18.4311 10.6083V7.13638L12.0017 2.73438L5.57227 7.13638V10.7497C6.00574 11.1403 6.12188 11.7738 5.85516 12.2928L5.64942 12.7214C6.16647 12.9627 6.71959 13.1177 7.28678 13.18C7.53976 13.159 7.79062 13.1174 8.03688 13.0557C8.49542 12.9489 8.96092 12.8744 9.42992 12.8328C9.55313 12.5844 9.69648 12.3464 9.85854 12.1213V9.32238C9.85854 8.84893 10.2424 8.46513 10.7158 8.46513H13.2876C13.761 8.46513 14.1448 8.84893 14.1448 9.32238V11.6413L16.228 13.18ZM12.0017 7.60787C11.0548 7.60787 10.2872 6.84026 10.2872 5.89336C10.2872 4.94646 11.0548 4.17885 12.0017 4.17885C12.9486 4.17885 13.7162 4.94646 13.7162 5.89336C13.7162 6.34808 13.5356 6.78417 13.214 7.1057C12.8925 7.42724 12.4564 7.60787 12.0017 7.60787Z" fill="#4F6BBF"/>
<path id="Shape_2" d="M10.7158 11.2511C11.4691 10.7095 12.462 10.6351 13.2876 11.0582V9.32227H10.7158V11.2511Z" fill="#4F6BBF"/>
<path id="Oval" d="M12.0018 6.75064C12.4752 6.75064 12.859 6.36684 12.859 5.89339C12.859 5.41994 12.4752 5.03613 12.0018 5.03613C11.5283 5.03613 11.1445 5.41994 11.1445 5.89339C11.1445 6.36684 11.5283 6.75064 12.0018 6.75064Z" fill="#4F6BBF"/>
<path id="Shape_3" d="M4.09721 7.10656L11.7568 1.86444C11.9037 1.76251 12.0985 1.76251 12.2454 1.86444L19.905 7.10227C20.1003 7.236 20.367 7.18611 20.5008 6.99083C20.6316 6.79636 20.582 6.53286 20.3894 6.39932L12.2454 0.827164C12.1738 0.777138 12.0885 0.750217 12.0011 0.750011C11.9149 0.749387 11.8308 0.77643 11.7611 0.827164L3.61715 6.39932C3.52568 6.46306 3.46264 6.55992 3.44141 6.66936C3.4182 6.78217 3.44138 6.89958 3.5057 6.99512C3.63924 7.18774 3.90273 7.23739 4.09721 7.10656Z" fill="#4F6BBF"/>
<path id="Shape_4" d="M4.51345 19.6656C4.26012 19.5504 3.96133 19.6615 3.84479 19.9142L3.36901 20.9429C3.25065 21.1962 3.36004 21.4975 3.61333 21.6159C3.86663 21.7342 4.16791 21.6248 4.28628 21.3715L4.76205 20.3428C4.81326 20.2179 4.81326 20.0778 4.76205 19.9528C4.72174 19.8272 4.63196 19.7235 4.51345 19.6656Z" fill="#4F6BBF"/>
<path id="Shape_5" d="M5.11782 11.5468C5.07523 11.4356 4.98827 11.3471 4.87778 11.3025L0 9.32227V20.8952H0.321471C0.477919 20.8932 0.620853 20.8062 0.694377 20.668L5.0921 11.894C5.1494 11.7872 5.15874 11.661 5.11782 11.5468Z" fill="#4F6BBF"/>
<path id="Shape_6" d="M7.02974 20.09C6.9705 19.9293 6.8504 19.7984 6.69541 19.7257C6.61029 19.6884 6.51829 19.6694 6.42537 19.6699C6.34944 19.6702 6.2741 19.6832 6.20249 19.7085C6.04294 19.7679 5.91346 19.8881 5.84244 20.0428L5.14378 21.5988C5.07968 21.7568 5.07968 21.9336 5.14378 22.0917C5.20148 22.2523 5.32224 22.3823 5.47811 22.4517C5.63426 22.5179 5.81059 22.5179 5.96674 22.4517C6.1274 22.3925 6.25829 22.2724 6.33108 22.1174L7.04689 20.5615C7.102 20.408 7.09586 20.2391 7.02974 20.09Z" fill="#4F6BBF"/>
<path id="Shape_7" d="M17.7232 14.1186C17.0535 14.3696 16.3026 14.2699 15.7216 13.8528L13.1112 11.9497C12.4851 11.4922 11.6225 11.5425 11.0538 12.0697C10.6348 12.4574 10.2981 12.9253 10.0637 13.4456L9.06925 15.6488C8.93231 15.966 9.05606 16.3354 9.35643 16.506H9.38644C9.66104 16.6396 9.99109 16.5729 10.1923 16.3432L11.881 14.4615L11.7267 14.3243C11.5613 14.1654 11.5503 13.9043 11.7019 13.732C11.8535 13.5598 12.1138 13.5375 12.2925 13.6814L18.4905 19.1807L21.3452 17.9977L18.992 13.6428L17.7232 14.1186Z" fill="#4F6BBF"/>
<path id="Shape_8" d="M19.1126 11.1694C19.0067 11.2065 18.9222 11.2878 18.8811 11.3923C18.8473 11.4838 18.8551 11.5856 18.9026 11.6709L23.3046 19.8148C23.3844 19.946 23.5282 20.0245 23.6818 20.0205H24.0032V9.29199L19.1126 11.1694Z" fill="#4F6BBF"/>
<path id="Shape_9" d="M12.5159 15.0615L10.8228 16.9475C10.5332 17.2787 10.1141 17.468 9.67411 17.4661C9.45157 17.4664 9.23183 17.4166 9.03117 17.3204H8.9883C8.25336 16.9535 7.94076 16.0706 8.28107 15.323L9.00116 13.7456C8.73113 13.7885 8.47395 13.8399 8.23392 13.8914C7.92359 13.9703 7.60636 14.0191 7.28665 14.0371C6.58489 13.9683 5.90038 13.7783 5.26353 13.4756L2.20312 19.5707L2.90607 19.905L3.06467 19.5535C3.38088 18.8708 4.19051 18.5734 4.87348 18.8892C5.06146 18.9745 5.22612 19.1039 5.35354 19.2663C5.79598 18.8004 6.48818 18.6723 7.06805 18.9492C7.53938 19.1662 7.86403 19.6126 7.92531 20.1279C8.64714 19.9839 9.36611 20.388 9.61839 21.0794C9.64634 21.1619 9.66784 21.2465 9.68268 21.3323C9.92999 21.2936 10.1832 21.3278 10.4113 21.4309C10.7233 21.5735 10.9654 21.8349 11.0837 22.1569C11.202 22.4788 11.1868 22.8347 11.0414 23.1454L10.7585 23.7241L11.9073 24.6542C12.0716 24.7663 12.2838 24.7807 12.4618 24.6917C12.6397 24.6027 12.7556 24.4243 12.7645 24.2256C12.7658 24.08 12.7069 23.9404 12.6016 23.8398L12.1216 23.3597C12.0404 23.2793 11.9948 23.1697 11.9948 23.0554C11.9948 22.9411 12.0404 22.8316 12.1216 22.7511C12.2021 22.6699 12.3116 22.6243 12.4259 22.6243C12.5402 22.6243 12.6497 22.6699 12.7302 22.7511L13.2103 23.2312L13.5789 23.6041C13.7704 23.7842 14.069 23.7842 14.2604 23.6041C14.351 23.5147 14.402 23.3927 14.402 23.2654C14.402 23.1382 14.351 23.0162 14.2604 22.9268L12.5459 21.2123C12.3778 21.0442 12.3778 20.7717 12.5459 20.6037C12.714 20.4356 12.9865 20.4356 13.1546 20.6037L14.8691 22.3182L14.9162 22.3653C15.0513 22.5009 15.2349 22.5771 15.4263 22.5771C15.6177 22.5771 15.8012 22.5009 15.9364 22.3653C16.0797 22.225 16.1575 22.031 16.151 21.8306C16.1445 21.6301 16.0542 21.4416 15.9021 21.3109L13.8575 19.5192C13.7856 19.4526 13.7387 19.3634 13.7246 19.2663C13.7228 19.2536 13.7228 19.2406 13.7246 19.2278C13.7177 19.1193 13.7547 19.0127 13.8275 18.932C13.8658 18.8906 13.9107 18.8558 13.9604 18.8291C14.041 18.7929 14.1308 18.7824 14.2176 18.7991C14.2389 18.7971 14.2605 18.7971 14.2819 18.7991C14.3375 18.8165 14.3887 18.8458 14.4319 18.8849L14.9248 19.3135L17.0079 21.1395C17.3355 21.4024 17.812 21.3606 18.0889 21.0447C18.3657 20.7288 18.3446 20.2509 18.0409 19.9607L12.5159 15.0615Z" fill="#4F6BBF"/>
<path id="Shape_10" d="M10.0346 22.212C9.9788 22.1898 9.91892 22.1796 9.85889 22.182C9.69148 22.1816 9.53915 22.2787 9.46884 22.4306L9.07021 23.2879L8.93734 23.575C8.89328 23.6806 8.89328 23.7995 8.93734 23.9051C8.97693 24.0114 9.05708 24.0978 9.16022 24.1451C9.26409 24.1945 9.38344 24.2 9.49145 24.1605C9.59946 24.1211 9.68707 24.0398 9.73458 23.9351L10.2704 22.7735C10.3141 22.6678 10.3138 22.5491 10.2696 22.4436C10.2253 22.3381 10.1407 22.2548 10.0346 22.212Z" fill="#4F6BBF"/>
<path id="Shape_11" d="M8.46122 21.0152C8.37721 20.9741 8.28467 20.9535 8.19118 20.9552C8.11525 20.9554 8.0399 20.9685 7.9683 20.9937C7.80949 21.0543 7.68041 21.1742 7.60825 21.3281L7.06818 22.4939C6.91786 22.8171 7.05795 23.2009 7.38108 23.3512C7.7042 23.5015 8.08801 23.3614 8.23833 23.0383L8.27262 22.9654L8.76983 21.881C8.84319 21.7263 8.85092 21.5486 8.79126 21.3881C8.73712 21.2237 8.61777 21.0889 8.46122 21.0152Z" fill="#4F6BBF"/>
</g>
</g>
</svg>
