<svg width="24" height="24" viewBox="0 0 24 24" fill="none" xmlns="http://www.w3.org/2000/svg">
<g id="Retail food">
<g id="Icon">
<path fill-rule="evenodd" clip-rule="evenodd" d="M11.5 17C11.5 17.341 11.5581 17.6792 11.6716 18C11.6892 18.0498 11.7081 18.0992 11.7284 18.1481C11.8791 18.512 12.1001 18.8427 12.3787 19.1213C12.6573 19.3999 12.988 19.6209 13.3519 19.7716C13.7159 19.9224 14.106 20 14.5 20C14.894 20 15.2841 19.9224 15.6481 19.7716C16.012 19.6209 16.3427 19.3999 16.6213 19.1213C16.8999 18.8427 17.1209 18.512 17.2716 18.1481C17.2919 18.0992 17.3108 18.0498 17.3284 18C17.4419 17.6792 17.5 17.341 17.5 17H11.5ZM16.2321 18C16.1448 18.151 16.0381 18.2904 15.9142 18.4142C15.7285 18.5999 15.508 18.7472 15.2654 18.8478C15.0227 18.9483 14.7626 19 14.5 19C14.2374 19 13.9773 18.9483 13.7346 18.8478C13.492 18.7472 13.2715 18.5999 13.0858 18.4142C12.9619 18.2904 12.8552 18.151 12.7679 18H16.2321Z" fill="#5B7CE2"/>
<path d="M14.3535 14.3536L12.3535 16.3536L11.6464 15.6464L13.6464 13.6464L14.3535 14.3536Z" fill="#5B7CE2"/>
<path d="M15.3535 16.3536L17.3535 14.3536L16.6464 13.6464L14.6464 15.6464L15.3535 16.3536Z" fill="#5B7CE2"/>
<path fill-rule="evenodd" clip-rule="evenodd" d="M1.95932 4.67412C2.31027 3.67141 3.2566 3 4.31896 3H19.681C20.7434 3 21.6897 3.67141 22.0407 4.67412L22.8596 7.01402C22.9525 7.27945 23 7.55866 23 7.83989V9.5C23 10.8807 21.8807 12 20.5 12H20V21C20 21.5523 19.5523 22 19 22H10.0004C9.44808 22 9.00037 21.5523 9.00037 21V12H5V22H4V12H3.5C2.11929 12 1 10.8807 1 9.5V7.83989C1 7.55866 1.04745 7.27945 1.14035 7.01402L1.95932 4.67412ZM4.31896 4C3.68155 4 3.11375 4.40284 2.90317 5.00447L2.08421 7.34437C2.02847 7.50363 2 7.67116 2 7.83989V9.5C2 10.3284 2.67157 11 3.5 11H4V8H5V11H9.00037V8H10.0004V11H14V8H15V11H19V8H20V11H20.5C21.3284 11 22 10.3284 22 9.5V7.83989C22 7.67116 21.9715 7.50363 21.9158 7.34437L21.0968 5.00447C20.8863 4.40284 20.3185 4 19.681 4H4.31896ZM10.0004 12H19V21H10.0004V12Z" fill="#5B7CE2"/>
</g>
</g>
</svg>
