<svg width="24" height="25" viewBox="0 0 24 25" fill="none" xmlns="http://www.w3.org/2000/svg">
<g id="_x31_1">
<path id="Vector" d="M12.0001 16.012C13.4203 16.012 14.5716 14.8607 14.5716 13.4406C14.5716 12.0204 13.4203 10.8691 12.0001 10.8691C10.58 10.8691 9.42871 12.0204 9.42871 13.4406C9.42871 14.8607 10.58 16.012 12.0001 16.012Z" fill="#4F6BBF"/>
<path id="Vector_2" d="M16.2863 19.4413C16.2863 17.5504 14.7482 16.0127 12.8577 16.0127H12.0006H11.1434C9.25293 16.0127 7.71484 17.5504 7.71484 19.4413C7.71484 19.915 8.09863 20.2984 8.57199 20.2984H15.4291C15.9025 20.2984 16.2863 19.915 16.2863 19.4413Z" fill="#4F6BBF"/>
<path id="Vector_3" d="M4.28627 19.4417C5.70643 19.4417 6.8577 18.2904 6.8577 16.8703C6.8577 15.4501 5.70643 14.2988 4.28627 14.2988C2.86611 14.2988 1.71484 15.4501 1.71484 16.8703C1.71484 18.2904 2.86611 19.4417 4.28627 19.4417Z" fill="#4F6BBF"/>
<path id="Vector_4" d="M5.14286 19.4414H4.28571H3.42857C1.53809 19.4414 0 20.9791 0 22.87V23.7271C0 24.2009 0.383789 24.5843 0.857143 24.5843H7.71429C8.18764 24.5843 8.57143 24.2009 8.57143 23.7271V22.87C8.57143 20.9791 7.03334 19.4414 5.14286 19.4414Z" fill="#4F6BBF"/>
<path id="Vector_5" d="M19.714 19.4417C21.1342 19.4417 22.2854 18.2904 22.2854 16.8703C22.2854 15.4501 21.1342 14.2988 19.714 14.2988C18.2938 14.2988 17.1426 15.4501 17.1426 16.8703C17.1426 18.2904 18.2938 19.4417 19.714 19.4417Z" fill="#4F6BBF"/>
<path id="Vector_6" d="M20.5716 19.4414H19.7144H18.8573C16.9668 19.4414 15.4287 20.9791 15.4287 22.87V23.7271C15.4287 24.2009 15.8125 24.5843 16.2859 24.5843H23.143C23.6164 24.5843 24.0001 24.2009 24.0001 23.7271V22.87C24.0001 20.9791 22.4621 19.4414 20.5716 19.4414Z" fill="#4F6BBF"/>
<path id="Vector_7" d="M6.01172 0.583984V5.71512H11.1429C10.9331 2.97984 8.747 0.793771 6.01172 0.583984Z" fill="#4F6BBF"/>
<path id="Vector_8" d="M5.58231 11.7268C8.51535 11.7268 10.9222 9.45142 11.1429 6.57394H5.58231C5.34495 6.57394 5.1529 6.38189 5.1529 6.14453V0.583984C2.27543 0.804653 0 3.2115 0 6.14453C0 9.22248 2.50436 11.7268 5.58231 11.7268Z" fill="#4F6BBF"/>
<path id="Vector_9" d="M23.1427 3.15527H21.4284C20.955 3.15527 20.5713 3.53901 20.5713 4.01242V10.0124H23.9999V4.01242C23.9999 3.53901 23.6161 3.15527 23.1427 3.15527Z" fill="#4F6BBF"/>
<path id="Vector_10" d="M19.7137 1.44113C19.7137 0.967721 19.33 0.583984 18.8566 0.583984H17.1423C16.6689 0.583984 16.2852 0.967721 16.2852 1.44113V10.0126H19.7137V1.44113Z" fill="#4F6BBF"/>
<path id="Vector_11" d="M15.4286 5.72628C15.4286 5.25288 15.0448 4.86914 14.5714 4.86914H12.8571C12.3838 4.86914 12 5.25288 12 5.72628V10.012H15.4286V5.72628Z" fill="#4F6BBF"/>
</g>
</svg>
