<svg width="100" height="100" viewBox="0 0 100 100" fill="none" xmlns="http://www.w3.org/2000/svg">
<g id="Interactive-spinner-light">
<path id="base" d="M100 50C100 77.6142 77.6142 100 50 100C22.3858 100 0 77.6142 0 50C0 22.3858 22.3858 0 50 0C77.6142 0 100 22.3858 100 50ZM9.08144 50C9.08144 72.5987 27.4013 90.9186 50 90.9186C72.5987 90.9186 90.9186 72.5987 90.9186 50C90.9186 27.4013 72.5987 9.08144 50 9.08144C27.4013 9.08144 9.08144 27.4013 9.08144 50Z" fill="#E5E7EB"/>
<path id="loader" d="M61.5499 93.9676C62.187 96.393 64.6792 97.8624 67.0369 97.0079C71.7681 95.2932 76.2216 92.871 80.2428 89.8167C85.4716 85.8452 89.867 80.8826 93.1779 75.2124C96.4889 69.5422 98.6506 63.2754 99.5396 56.7698C100.223 51.7666 100.144 46.6976 99.3121 41.7345C98.8975 39.2613 96.393 37.813 93.9676 38.4501C91.5421 39.0873 90.1191 41.5694 90.4837 44.0505C91.0423 47.8511 91.0639 51.7191 90.5418 55.5402C89.8142 60.8642 88.0452 65.9928 85.3356 70.6331C82.626 75.2735 79.029 79.3347 74.7499 82.5849C71.6788 84.9175 68.2995 86.7997 64.715 88.1811C62.375 89.083 60.9127 91.5421 61.5499 93.9676Z" fill="#1A56DB"/>
</g>
</svg>
