<svg width="32" height="32" viewBox="0 0 32 32" fill="none" xmlns="http://www.w3.org/2000/svg">
<g id="Group 1000002674">
<path id="Vector" d="M16 0C12.8355 0 9.74207 0.938384 7.11088 2.69649C4.4797 4.45459 2.42894 6.95345 1.21793 9.87706C0.0069327 12.8007 -0.309921 16.0177 0.307443 19.1214C0.924806 22.2251 2.44866 25.0761 4.6863 27.3137C6.92394 29.5513 9.77486 31.0752 12.8786 31.6926C15.9823 32.3099 19.1993 31.9931 22.1229 30.7821C25.0466 29.5711 27.5454 27.5203 29.3035 24.8891C31.0616 22.2579 32 19.1645 32 16C31.9948 11.7581 30.3075 7.69146 27.308 4.692C24.3085 1.69254 20.2419 0.00516705 16 0ZM16 28C13.6266 28 11.3066 27.2962 9.33316 25.9776C7.35977 24.659 5.8217 22.7849 4.91345 20.5922C4.0052 18.3995 3.76756 15.9867 4.23058 13.6589C4.6936 11.3311 5.83649 9.19295 7.51472 7.51472C9.19295 5.83649 11.3311 4.6936 13.6589 4.23058C15.9867 3.76755 18.3995 4.00519 20.5922 4.91344C22.7849 5.8217 24.6591 7.35977 25.9776 9.33315C27.2962 11.3065 28 13.6266 28 16C27.997 19.1817 26.7318 22.2322 24.482 24.482C22.2322 26.7318 19.1817 27.997 16 28Z" fill="#4F6BBF"/>
<path id="Vector_2" d="M13.0024 17.7117V14.2877H13.6797L7.82905 8.43701C5.87034 10.5487 4.80626 13.3374 4.86036 16.2171C4.91447 19.0969 6.08253 21.8436 8.11918 23.8802C10.1558 25.9169 12.9025 27.0849 15.7823 27.139C18.662 27.1931 21.4507 26.1291 23.5624 24.1703L17.109 17.7117H13.0024ZM12.1437 17.7117H8.28772C8.11854 17.7121 7.95094 17.6792 7.79449 17.6149C7.63804 17.5505 7.49581 17.4559 7.37594 17.3366C7.25606 17.2172 7.1609 17.0754 7.09589 16.9192C7.03088 16.763 6.99729 16.5955 6.99705 16.4263V15.573C6.99844 15.2316 7.13504 14.9047 7.37694 14.6638C7.61884 14.4229 7.94633 14.2877 8.28772 14.2877H12.1437V17.7117Z" fill="#4F6BBF"/>
<path id="Vector_3" d="M16.0002 4.8584C13.1944 4.85688 10.4922 5.91832 8.4375 7.82907L24.1708 23.5677C25.6445 21.9785 26.6224 19.9939 26.9847 17.8571C27.3471 15.7203 27.0781 13.5242 26.2107 11.5381C25.3433 9.55195 23.9152 7.86204 22.1016 6.67554C20.2879 5.48905 18.1675 4.85753 16.0002 4.8584ZM21.1415 9.14107C21.4821 9.14216 21.8083 9.27793 22.0492 9.51874C22.29 9.75955 22.4257 10.0858 22.4268 10.4264C22.4266 10.4832 22.4376 10.5395 22.4592 10.592C22.4809 10.6445 22.5127 10.6922 22.5528 10.7324C22.593 10.7726 22.6407 10.8044 22.6932 10.826C22.7457 10.8476 22.802 10.8586 22.8588 10.8584C23.1997 10.8586 23.5265 10.9941 23.7675 11.2351C24.0085 11.4761 24.144 11.8029 24.1442 12.1437V13.0024C24.1442 13.1163 24.0989 13.2255 24.0184 13.306C23.9379 13.3865 23.8287 13.4317 23.7148 13.4317C23.6009 13.4317 23.4917 13.3865 23.4112 13.306C23.3307 13.2255 23.2855 13.1163 23.2855 13.0024V12.1437C23.2851 12.0307 23.2401 11.9223 23.1601 11.8424C23.0802 11.7625 22.9719 11.7174 22.8588 11.7171C22.5174 11.7157 22.1905 11.5791 21.9496 11.3372C21.7087 11.0953 21.5734 10.7678 21.5735 10.4264C21.5732 10.37 21.5617 10.3142 21.5398 10.2623C21.518 10.2103 21.486 10.1631 21.4459 10.1235C21.4058 10.0839 21.3583 10.0526 21.306 10.0313C21.2538 10.0101 21.1979 9.99935 21.1415 9.99973C21.0293 9.9972 20.9225 9.95085 20.8441 9.8706C20.7656 9.79036 20.7217 9.6826 20.7217 9.57038C20.7217 9.45816 20.7657 9.3504 20.8441 9.27016C20.9226 9.18992 21.0293 9.14359 21.1415 9.14107ZM23.7122 17.7117H19.5308L16.1015 14.2877H23.7122C24.0536 14.2877 24.381 14.423 24.6229 14.6638C24.8648 14.9047 25.0014 15.2317 25.0028 15.5731V16.4264C25.0026 16.5956 24.969 16.763 24.904 16.9192C24.839 17.0754 24.7438 17.2172 24.6239 17.3366C24.5041 17.456 24.3618 17.5506 24.2054 17.6149C24.0489 17.6793 23.8813 17.7122 23.7122 17.7117Z" fill="#4F6BBF"/>
</g>
</svg>
