<svg width="24" height="25" viewBox="0 0 24 25" fill="none" xmlns="http://www.w3.org/2000/svg">
<g id="Group">
<g id="Group_2">
<path id="Vector" d="M14.8508 15.8029C14.6305 16.0232 14.6305 16.3805 14.8508 16.5959L20.0541 21.7992L20.4995 21.3538L20.8471 21.0062L15.6486 15.8029C15.4284 15.5826 15.071 15.5826 14.8508 15.8029Z" fill="#4F6BBF"/>
<path id="Vector_2" d="M23.9657 12.9145V11.7936C23.9657 11.3775 23.6622 11.0153 23.2511 10.9468L21.019 10.5748C20.7987 9.71813 20.4609 8.91047 20.0204 8.16154L21.3322 6.31614C21.5721 5.97349 21.5329 5.50847 21.2392 5.21477L20.4512 4.42668L19.6631 3.63859C19.3694 3.34489 18.9043 3.30573 18.5617 3.55048L16.7163 4.86233C15.9674 4.41689 15.1597 4.08893 14.3031 3.86376L13.9262 1.63166C13.8576 1.21558 13.5003 0.916992 13.0793 0.916992H11.9584H10.8374C10.4361 0.936572 10.0787 1.24006 10.0102 1.64634L9.63818 3.87844C8.78156 4.09872 7.97389 4.43647 7.22496 4.87702L5.37956 3.56517C5.03692 3.32531 4.5719 3.36447 4.2782 3.65817L3.495 4.45605L2.70691 5.24414C2.41322 5.53784 2.37406 6.00286 2.6188 6.34551L3.93066 8.19091C3.47542 8.94963 3.13278 9.77687 2.92229 10.6629L0.714665 11.0398C0.303488 11.1083 0 11.4656 0 11.8866V13.0075V14.1285C0 14.5446 0.303488 14.9068 0.714665 14.9753L2.96635 15.3571C3.18662 16.2137 3.54395 17.0214 3.97471 17.7557L2.65307 19.5717C2.41322 19.9143 2.45238 20.3794 2.74607 20.6731L3.53416 21.4612L4.32225 22.2492C4.61595 22.5429 5.08097 22.5821 5.42362 22.3373L7.27881 21.0157C8.02774 21.4514 8.83541 21.7793 9.69203 21.9947L10.0689 24.2023C10.1424 24.6184 10.4948 24.917 10.9158 24.917H12.0367H13.1577C13.5737 24.917 13.936 24.6135 14.0045 24.2023L14.3863 21.9506C14.5821 21.9017 14.773 21.843 14.959 21.7793C15.008 21.7646 15.0618 21.7451 15.1107 21.7255C15.2674 21.6716 15.4191 21.6129 15.5709 21.5493C15.6051 21.5346 15.6394 21.5199 15.6737 21.5052C15.8548 21.4269 16.031 21.3437 16.2072 21.2556C16.2121 21.2507 16.217 21.2507 16.2219 21.2458C16.3981 21.1577 16.5743 21.0598 16.7408 20.9619C16.8485 20.8982 16.9562 20.8297 17.0589 20.7612L14.1807 17.8829C13.6667 17.369 12.9521 17.1193 12.2227 17.1683C10.9892 17.2515 9.72629 16.8256 8.78646 15.8809C7.64593 14.7404 7.25923 13.125 7.62635 11.6614C7.65083 11.5537 7.78788 11.5195 7.86131 11.5978L9.65776 13.3943C10.1913 13.9278 11.0724 13.9278 11.606 13.3894L12.4234 12.5719C12.9619 12.0335 12.9619 11.1573 12.4283 10.6237L10.5389 8.73425C10.4654 8.66082 10.4948 8.53355 10.5927 8.49929C12.1248 8.00979 13.8723 8.36713 15.0863 9.58108C16.0751 10.5699 16.496 11.9111 16.3541 13.2033C16.2709 13.9719 16.5205 14.7404 17.0687 15.2886L19.7952 18.0151C19.8833 17.878 19.9666 17.741 20.0498 17.6039C20.1428 17.4424 20.2309 17.2809 20.3141 17.1144C20.3386 17.0655 20.363 17.0165 20.3875 16.9676C20.4414 16.855 20.4903 16.7424 20.5442 16.6249C20.5833 16.5368 20.6225 16.4438 20.6567 16.3557C20.6812 16.297 20.7008 16.2333 20.7253 16.1697C20.7742 16.0424 20.8183 15.9152 20.8623 15.783C20.9162 15.6068 20.97 15.4355 21.019 15.2592L23.2511 14.8823C23.6671 14.8138 23.9657 14.4565 23.9657 14.0355V12.9145Z" fill="#4F6BBF"/>
</g>
</g>
</svg>
