<svg width="224" height="188" viewBox="0 0 224 188" fill="none" xmlns="http://www.w3.org/2000/svg">
<g clip-path="url(#clip0_1479_37086)">
<path d="M117.31 156.33L123.927 154.38L121.996 161.016L123.927 167.633L117.31 165.702L110.675 167.633L112.624 161.016L110.675 154.38L117.31 156.33Z" fill="black" stroke="white" stroke-width="0.37593" stroke-miterlimit="10"/>
</g>
<g clip-path="url(#clip1_1479_37086)">
<path d="M47.3686 123.615L59.2013 130.062L47.3686 136.561L40.8955 148.368L34.4224 136.561L22.5897 130.062L34.4224 123.615L40.8955 111.756L47.3686 123.615Z" fill="black" stroke="white" stroke-width="0.37593" stroke-miterlimit="10"/>
</g>
<path d="M212.64 140.089C211.926 141.384 210.596 142.321 208.681 142.901C206.764 143.483 204.279 143.702 201.286 143.573C195.301 143.315 187.33 141.665 177.927 138.787C159.123 133.031 134.626 122.377 108.898 108.185C83.1693 93.9934 61.0897 78.9572 46.1906 66.1222C38.7399 59.7036 33.0926 53.8421 29.6816 48.9175C27.9759 46.4549 26.8355 44.2353 26.3048 42.3044C25.7743 40.3743 25.8568 38.7497 26.571 37.455C27.2851 36.1604 28.6152 35.2239 30.5307 34.643C32.4471 34.0619 34.9328 33.8424 37.9257 33.9715C43.9107 34.2297 51.881 35.8796 61.2846 38.7577C80.0888 44.5131 104.585 55.1678 130.314 69.3594C156.042 83.551 178.122 98.5872 193.021 111.422C200.471 117.841 206.119 123.702 209.53 128.627C211.235 131.09 212.376 133.309 212.907 135.24C213.437 137.17 213.354 138.795 212.64 140.089Z" stroke="black" stroke-width="0.37593"/>
<path d="M205.034 153.876C204.32 155.171 202.99 156.107 201.074 156.688C199.158 157.269 196.672 157.489 193.679 157.36C187.694 157.102 179.724 155.452 170.32 152.574C151.516 146.818 127.02 136.163 101.291 121.972C75.5629 107.78 53.4833 92.7441 38.5842 79.909C31.1335 73.4905 25.4862 67.629 22.0752 62.7044C20.3694 60.2417 19.2291 58.0222 18.6983 56.0912C18.1678 54.1612 18.2504 52.5365 18.9645 51.2419C19.6786 49.9472 21.0088 49.0107 22.9243 48.4299C24.8407 47.8487 27.3263 47.6293 30.3192 47.7584C36.3042 48.0166 44.2746 49.6664 53.6782 52.5446C72.4824 58.3 96.9787 68.9547 122.707 83.1463C148.436 97.3379 170.515 112.374 185.414 125.209C192.865 131.628 198.512 137.489 201.923 142.414C203.629 144.876 204.769 147.096 205.3 149.027C205.831 150.957 205.748 152.582 205.034 153.876Z" stroke="black" stroke-width="0.37593"/>
<path d="M197.43 167.663C196.716 168.958 195.386 169.895 193.471 170.475C191.554 171.056 189.069 171.276 186.076 171.147C180.091 170.889 172.12 169.239 162.717 166.361C143.913 160.605 119.416 149.951 93.6878 135.759C67.9593 121.567 45.8798 106.531 30.9807 93.6961C23.5299 87.2776 17.8827 81.4161 14.4716 76.4915C12.7659 74.0289 11.6256 71.8093 11.0948 69.8783C10.5643 67.9483 10.6469 66.3236 11.361 65.029C12.0751 63.7344 13.4053 62.7978 15.3207 62.217C17.2371 61.6359 19.7228 61.4164 22.7157 61.5455C28.7007 61.8037 36.6711 63.4535 46.0747 66.3317C64.8789 72.0871 89.3752 82.7418 115.104 96.9334C140.832 111.125 162.912 126.161 177.811 138.996C185.261 145.415 190.909 151.276 194.32 156.201C196.026 158.664 197.166 160.883 197.697 162.814C198.227 164.744 198.145 166.369 197.43 167.663Z" stroke="black" stroke-width="0.37593"/>
<circle cx="49.8318" cy="33.012" r="5.82692" fill="#5B7CE2"/>
<circle cx="158.664" cy="157.257" r="3.7593" fill="#5B7CE2"/>
<circle cx="31.0355" cy="17.9747" r="8.83436" fill="black"/>
<path d="M115.421 137.93C113.051 138.74 110.343 137.135 109.401 134.352L94.7402 91.3977L103.307 88.4673L117.983 131.481C118.925 134.234 117.776 137.12 115.421 137.93Z" fill="black"/>
<path d="M114.141 138.46C113.449 138.46 112.743 138.298 112.065 137.96C110.697 137.282 109.607 136.016 109.077 134.455L94.4166 91.5004C94.3577 91.3385 94.446 91.147 94.6227 91.0881L103.19 88.1577C103.278 88.1283 103.366 88.1283 103.44 88.1725C103.513 88.2166 103.572 88.2755 103.602 88.3639L118.277 131.377C119.263 134.293 118.027 137.371 115.51 138.239C115.083 138.387 114.612 138.46 114.141 138.46ZM95.1526 91.6035L109.71 134.249C110.181 135.648 111.153 136.796 112.36 137.385C113.331 137.856 114.376 137.945 115.318 137.621C117.497 136.87 118.557 134.16 117.674 131.583L103.101 88.8793L95.1526 91.6035Z" fill="black"/>
<path d="M101.79 51.388L74.0729 71.1644L63.2834 82.3706L59.0441 89.8659L59.0294 89.9248C58.1904 91.2206 58.6761 94.2099 60.2511 97.2581C61.7967 100.262 63.9752 102.353 65.506 102.471L65.4619 102.5L73.6018 103.384L88.8366 100.954L121.176 89.3799L161.375 96.2715L161.655 96.2862C151.557 94.4013 137.927 80.898 128.02 61.799C118.129 42.7147 114.979 23.8512 119.321 14.5447H119.306L102.011 50.9168L101.79 51.388Z" fill="#5B7CE2"/>
<path d="M168.336 95.4551C178.271 90.2936 176.35 66.8942 164.045 43.191C151.74 19.4879 133.712 4.45691 123.777 9.6184C113.842 14.7799 115.763 38.1793 128.068 61.8825C140.372 85.5856 158.401 100.617 168.336 95.4551Z" fill="white"/>
<path d="M163.966 96.8017C159.639 96.8017 154.428 94.3867 148.82 89.6893C141.18 83.2984 133.688 73.447 127.727 61.9316C118.703 44.4966 114.979 26.6197 118.247 16.3855C119.336 12.9692 121.162 10.5836 123.649 9.30249C128.595 6.76969 135.557 8.91963 143.27 15.3694C150.91 21.7603 158.402 31.6117 164.364 43.1271C173.402 60.5621 177.126 78.4389 173.843 88.6732C172.754 92.0895 170.929 94.4751 168.441 95.7562C167.102 96.463 165.6 96.8017 163.966 96.8017ZM128.153 8.91963C126.637 8.91963 125.224 9.22886 123.958 9.89151C121.618 11.0843 119.91 13.352 118.88 16.6064C115.656 26.6934 119.366 44.3787 128.315 61.6665C140.503 85.1833 158.373 100.233 168.161 95.2113C170.502 94.0186 172.209 91.7508 173.24 88.4965C176.463 78.4095 172.754 60.7241 163.804 43.4363C153.192 22.9678 138.295 8.91963 128.153 8.91963Z" fill="black"/>
<path d="M163.966 96.8018C159.639 96.8018 154.428 94.3869 148.82 89.6894C141.18 83.2985 133.688 73.4471 127.727 61.9317C118.703 44.4967 114.979 26.6199 118.247 16.3856C119.336 12.9693 121.162 10.5837 123.649 9.30263C126.961 7.59446 131.289 8.0215 136.161 10.5248C140.827 12.9251 145.876 17.1808 150.792 22.8207C150.91 22.9532 150.895 23.1594 150.763 23.2772C150.63 23.395 150.424 23.3803 150.306 23.2477C140.327 11.7912 130.229 6.66675 123.958 9.89165C121.618 11.0844 119.91 13.3522 118.88 16.6065C115.656 26.6935 119.366 44.3789 128.315 61.6667C138.913 82.1205 153.824 96.1834 163.952 96.1834C165.468 96.1834 166.881 95.8741 168.147 95.2115C170.487 94.0187 172.195 91.751 173.225 88.4966C176.449 78.4096 172.739 60.7243 163.79 43.4365C161.125 38.2825 158.123 33.4378 154.899 29.0349C154.796 28.8876 154.825 28.6815 154.973 28.5784C155.12 28.4753 155.326 28.5047 155.429 28.652C158.682 33.0844 161.685 37.9585 164.378 43.1419C173.402 60.5623 177.126 78.4391 173.843 88.6733C172.754 92.0897 170.929 94.4752 168.441 95.7563C167.102 96.4632 165.6 96.8018 163.966 96.8018Z" fill="black"/>
<path d="M145.794 65.281C148.095 64.0853 147.653 58.6691 144.805 53.1836C141.958 47.6981 137.783 44.2205 135.482 45.4162C133.18 46.612 133.623 52.0282 136.471 57.5137C139.318 62.9992 143.492 66.4767 145.794 65.281Z" fill="#5B7CE2"/>
<path d="M144.787 65.8483C142.255 65.8483 138.722 62.5793 136.176 57.6462C134.056 53.5525 133.188 49.341 133.968 46.9113C134.248 46.0572 134.704 45.4534 135.337 45.1295C137.839 43.8484 142.123 47.3383 145.096 53.0665C147.216 57.1602 148.084 61.3718 147.304 63.8015C147.024 64.6556 146.568 65.2593 145.935 65.5833C145.582 65.76 145.199 65.8483 144.787 65.8483ZM136.485 45.4976C136.176 45.4976 135.881 45.5565 135.631 45.6891C135.146 45.9394 134.792 46.4106 134.571 47.1027C133.85 49.3704 134.689 53.4052 136.735 57.3517C139.444 62.5793 143.521 66.0987 145.626 65.009C146.112 64.7586 146.465 64.2874 146.686 63.5953C147.407 61.3129 146.553 57.2928 144.522 53.3463C142.137 48.7667 138.722 45.4976 136.485 45.4976Z" fill="#5B7CE2"/>
<path d="M161.729 91.3092C157.931 91.3092 153.368 89.1888 148.452 85.0803C141.769 79.4846 135.204 70.8554 129.993 60.7832C122.089 45.5275 118.836 29.8742 121.692 20.9064C122.648 17.9024 124.253 15.8113 126.446 14.6775C131.48 12.1005 138.884 15.0751 146.774 22.8354C146.906 22.968 146.906 23.1594 146.774 23.2919C146.641 23.4245 146.45 23.4245 146.317 23.2919C138.634 15.7377 131.495 12.7926 126.74 15.2518C124.709 16.2973 123.222 18.2558 122.31 21.0978C119.498 29.9037 122.737 45.3655 130.567 60.4887C139.826 78.3802 152.853 90.6613 161.714 90.6613C163.039 90.6613 164.261 90.3815 165.379 89.822C167.411 88.7764 168.897 86.8179 169.81 83.9759C172.621 75.17 169.383 59.7082 161.552 44.5851C159.182 40.0201 156.533 35.735 153.677 31.8622C153.574 31.7149 153.604 31.5088 153.751 31.4057C153.898 31.3026 154.104 31.3321 154.207 31.4793C157.092 35.3963 159.756 39.6962 162.141 44.2906C170.045 59.5462 173.299 75.1995 170.443 84.1673C169.486 87.1714 167.882 89.2624 165.688 90.3962C164.481 91 163.157 91.3092 161.729 91.3092Z" fill="black"/>
<path d="M73.6174 103.693C73.6027 103.693 73.588 103.693 73.588 103.693L65.448 102.81C65.4039 102.81 65.3597 102.795 65.3156 102.766C63.6375 102.501 61.5179 100.38 59.9723 97.4055C58.3237 94.269 57.838 91.206 58.7359 89.7629L58.7506 89.7188L62.9898 82.2087C63.0046 82.1793 63.0193 82.1646 63.034 82.1498L73.8235 70.9437C73.8382 70.929 73.8529 70.9142 73.8677 70.8995L101.511 51.1673L118.998 14.3976C119.042 14.324 119.101 14.2651 119.189 14.2356C119.278 14.2062 119.366 14.2062 119.44 14.2503C119.602 14.324 119.675 14.5154 119.602 14.6774C115.171 24.1754 118.674 43.0535 128.301 61.6372C137.942 80.2502 151.381 94.0334 161.729 95.933C161.891 95.9624 162.009 96.1097 161.994 96.2864C161.979 96.4483 161.832 96.5661 161.67 96.5809L161.391 96.5662C161.376 96.5662 161.361 96.5662 161.346 96.5662L121.221 89.6893L88.9553 101.234C88.9406 101.234 88.9111 101.249 88.8964 101.249L73.6616 103.679C73.6469 103.693 73.6321 103.693 73.6174 103.693ZM65.6835 102.191L73.6174 103.045L88.7786 100.616L121.103 89.0561C121.162 89.0414 121.206 89.0267 121.265 89.0414L157.387 95.2261C147.628 90.941 136.22 78.2917 127.756 61.9464C119.351 45.7188 115.598 29.2409 117.659 18.83L102.085 51.5207C102.056 51.5649 102.026 51.6091 101.982 51.6385L74.2945 71.4149L63.5492 82.5622L59.3099 90.0722C59.3099 90.0869 59.2952 90.1016 59.2952 90.1016C58.5298 91.2944 59.045 94.2395 60.5317 97.111C61.9889 99.9236 64.0938 102.044 65.5363 102.147C65.5952 102.147 65.6394 102.162 65.6835 102.191Z" fill="black"/>
<path d="M101.834 51.2703L119.307 14.53H119.321C114.979 23.8366 118.144 42.7 128.021 61.7843C137.927 80.8981 151.557 94.4014 161.684 96.2568L161.405 96.2421L121.264 89.3653L120.337 89.2033C115.671 88.3787 109.445 82.3117 104.984 73.6531C100.407 64.7736 99.5971 55.9235 101.628 51.712L101.834 51.2703Z" fill="white"/>
<path d="M161.684 96.5806C161.669 96.5806 161.684 96.5806 161.684 96.5806L161.39 96.5658C161.375 96.5658 161.36 96.5658 161.345 96.5658L121.205 89.689L120.278 89.527C115.347 88.6582 109.091 82.341 104.69 73.8149C99.6996 64.1255 99.4494 55.4963 101.333 51.5793L101.554 51.1375L119.026 14.412C119.071 14.3384 119.13 14.2795 119.218 14.25C119.306 14.2206 119.394 14.2206 119.468 14.2647C119.63 14.3384 119.704 14.5298 119.63 14.6918C115.199 24.1898 118.703 43.0679 128.329 61.6516C137.971 80.2647 151.41 94.0478 161.758 95.9474C161.919 95.9768 162.037 96.1241 162.023 96.3008C161.978 96.448 161.846 96.5806 161.684 96.5806ZM117.628 18.8297L102.128 51.4173L101.908 51.8591C100.038 55.7466 100.583 64.4347 105.264 73.5056C109.576 81.8697 115.656 88.0545 120.395 88.8791L121.323 89.0411L157.371 95.2258C147.612 90.9407 136.204 78.2914 127.74 61.9461C119.336 45.7185 115.582 29.2406 117.628 18.8297Z" fill="black"/>
<path d="M73.1754 103.649C73.1607 103.649 73.146 103.649 73.146 103.649L65.4329 102.824C65.3887 102.824 65.3446 102.81 65.3004 102.78C63.6224 102.515 61.5027 100.395 59.9572 97.4202C58.3233 94.2689 57.8375 91.206 58.7354 89.7629L58.7502 89.7187L62.9894 82.2087C63.0777 82.0467 63.2691 82.0025 63.431 82.0909C63.5929 82.1792 63.6371 82.3707 63.5488 82.5326L59.3095 90.0721C59.3095 90.0868 59.2948 90.1016 59.2948 90.1016C58.5294 91.2943 59.0446 94.2395 60.5312 97.1109C61.9885 99.9235 64.0934 102.044 65.5359 102.147C65.5801 102.147 65.639 102.162 65.6684 102.191L73.2048 103.001C73.3815 103.016 73.514 103.178 73.4845 103.355C73.4698 103.517 73.3373 103.649 73.1754 103.649Z" fill="black"/>
<path d="M73.6901 103.325C71.1878 103.148 67.6845 99.5994 65.138 94.6958C62.4443 89.4976 61.8114 84.1228 63.46 82.2085L59.0588 89.8658L59.0294 89.9247C58.1904 91.2205 58.6761 94.2098 60.2511 97.258C61.7967 100.262 63.9752 102.353 65.506 102.471L65.4619 102.5L73.6901 103.325Z" fill="white"/>
<path d="M73.6906 103.649C73.6759 103.649 73.6759 103.649 73.6612 103.649C73.6023 103.649 73.5287 103.634 73.4698 103.634L65.4329 102.824C65.3887 102.824 65.3446 102.81 65.3004 102.78C63.6224 102.515 61.5027 100.395 59.9572 97.4201C58.3233 94.2688 57.8375 91.2059 58.7354 89.7628L58.7502 89.7186L62.6214 82.9743C62.7686 82.5915 62.96 82.2528 63.1955 81.973C63.2985 81.8405 63.4899 81.8257 63.6224 81.9141C63.7548 82.0172 63.799 82.1939 63.7107 82.3411L63.1661 83.2688C62.2976 85.6102 63.1513 90.2046 65.3887 94.5044C67.8175 99.2019 71.1294 102.633 73.4992 102.942L73.6759 102.957C73.8525 102.972 73.985 103.134 73.9703 103.31C73.985 103.516 73.8525 103.649 73.6906 103.649ZM65.6684 102.191L71.2913 102.765C69.1275 101.381 66.7429 98.5245 64.8441 94.8431C63.0041 91.2943 62.0915 87.6129 62.2387 84.9623L59.3095 90.072C59.3095 90.0868 59.2948 90.1015 59.2948 90.1015C58.5294 91.2943 59.0446 94.2394 60.5312 97.1109C61.9885 99.9234 64.0934 102.044 65.5359 102.147C65.5801 102.147 65.639 102.162 65.6684 102.191Z" fill="black"/>
<path d="M88.2931 101.013L88.9408 100.881C85.4375 101.617 79.9029 96.3158 76.0022 88.791C72.0132 81.1043 71.2625 73.4323 74.0887 71.1646L73.7207 71.5327L63.4905 82.1645C61.8125 84.0494 62.4307 89.4537 65.1391 94.6813C67.7445 99.7174 71.4391 103.31 73.9562 103.296L88.2931 101.013Z" fill="black"/>
<path d="M73.9421 103.635C71.2632 103.635 67.5391 100.027 64.8454 94.8434C62.1075 89.5422 61.4157 84.0054 63.241 81.9586L73.2797 71.5329C73.4564 71.2973 73.6625 71.0911 73.8833 70.9144C74.0157 70.8113 74.2071 70.826 74.3248 70.9438C74.4426 71.0764 74.4426 71.2678 74.3248 71.3856L73.7508 71.9894C71.7047 74.7283 72.7204 81.7377 76.2973 88.644C80.1538 96.0951 85.5412 101.205 88.8384 100.586L88.8826 100.572C89.0592 100.542 89.2211 100.645 89.2653 100.822C89.2947 100.999 89.1917 101.161 89.015 101.205C89.0003 101.205 88.9856 101.205 88.9709 101.22L88.3674 101.337H88.3526L74.0157 103.62C73.9863 103.62 73.9569 103.635 73.9421 103.635ZM72.426 73.3588L63.7267 82.4003C62.1075 84.2263 62.8435 89.5569 65.4342 94.5489C67.966 99.4378 71.5428 102.972 73.9421 102.987L86.601 100.969C83.1861 99.7617 78.9762 95.2115 75.7232 88.9532C72.6321 82.9893 71.4398 76.9224 72.426 73.3588Z" fill="black"/>
<path d="M135.484 45.4097C133.173 46.5877 133.512 52.0509 136.455 57.4993C141.387 66.6145 145.317 65.5395 145.773 65.3775C145.788 65.3775 145.788 65.3922 145.773 65.3922L137.309 72.2102C134.822 68.7202 132.452 64.8327 130.273 60.6359C128.198 56.6158 126.446 52.6105 125.062 48.7229L135.484 45.4097Z" fill="black"/>
<path d="M137.309 72.5341C137.294 72.5341 137.279 72.5341 137.265 72.5341C137.176 72.5193 137.103 72.4752 137.044 72.4015C134.497 68.8232 132.127 64.9062 129.993 60.7978C127.947 56.8513 126.181 52.8313 124.768 48.8554C124.738 48.767 124.738 48.6787 124.782 48.605C124.826 48.5314 124.885 48.4725 124.974 48.4431L135.395 45.1298C135.557 45.0856 135.734 45.1593 135.793 45.3212C135.851 45.4832 135.793 45.6599 135.645 45.7336C135.145 45.9839 134.777 46.4846 134.556 47.2208C133.835 49.5328 134.718 53.6265 136.764 57.3815C141.577 66.2757 145.287 65.2596 145.684 65.1124C145.831 65.0535 146.008 65.1271 146.082 65.2596C146.155 65.3922 146.126 65.5836 146.008 65.6867L137.515 72.4604C137.456 72.5046 137.382 72.5341 137.309 72.5341ZM125.489 48.929C126.887 52.7724 128.595 56.6599 130.567 60.4886C132.628 64.4645 134.924 68.2489 137.382 71.7389L144.727 65.8192C143.049 65.7456 139.885 64.4939 136.175 57.6465C134.026 53.6854 133.143 49.5033 133.923 46.9852C134.026 46.6613 134.144 46.3815 134.291 46.1164L125.489 48.929Z" fill="black"/>
<defs>
<clipPath id="clip0_1479_37086">
<rect width="13.5335" height="13.5335" fill="white" transform="translate(110.545 154.25)"/>
</clipPath>
<clipPath id="clip1_1479_37086">
<rect width="26.4376" height="26.4376" fill="white" transform="translate(40.8955 111.394) rotate(45)"/>
</clipPath>
</defs>
</svg>
