<svg width="250" height="201" viewBox="0 0 250 201" fill="none" xmlns="http://www.w3.org/2000/svg">
<rect y="0.802002" width="250" height="200" fill="white"/>
<path fill-rule="evenodd" clip-rule="evenodd" d="M63 134.802H154C154.515 134.802 155.017 134.746 155.5 134.641C155.983 134.746 156.485 134.802 157 134.802H209C212.866 134.802 216 131.668 216 127.802C216 123.936 212.866 120.802 209 120.802H203C199.134 120.802 196 117.668 196 113.802C196 109.936 199.134 106.802 203 106.802H222C225.866 106.802 229 103.668 229 99.802C229 95.936 225.866 92.802 222 92.802H200C203.866 92.802 207 89.668 207 85.802C207 81.936 203.866 78.802 200 78.802H136C139.866 78.802 143 75.668 143 71.802C143 67.936 139.866 64.802 136 64.802H79C75.134 64.802 72 67.936 72 71.802C72 75.668 75.134 78.802 79 78.802H39C35.134 78.802 32 81.936 32 85.802C32 89.668 35.134 92.802 39 92.802H64C67.866 92.802 71 95.936 71 99.802C71 103.668 67.866 106.802 64 106.802H24C20.134 106.802 17 109.936 17 113.802C17 117.668 20.134 120.802 24 120.802H63C59.134 120.802 56 123.936 56 127.802C56 131.668 59.134 134.802 63 134.802ZM226 134.802C229.866 134.802 233 131.668 233 127.802C233 123.936 229.866 120.802 226 120.802C222.134 120.802 219 123.936 219 127.802C219 131.668 222.134 134.802 226 134.802Z" fill="#F3FAF7"/>
<path d="M172.5 45.802V51.802" stroke="#057A55" stroke-width="2.5" stroke-linecap="round" stroke-linejoin="round"/>
<path d="M172.5 59.802V65.802" stroke="#057A55" stroke-width="2.5" stroke-linecap="round" stroke-linejoin="round"/>
<path d="M162.5 55.802H168.5" stroke="#057A55" stroke-width="2.5" stroke-linecap="round" stroke-linejoin="round"/>
<path d="M176.5 55.802H182.5" stroke="#057A55" stroke-width="2.5" stroke-linecap="round" stroke-linejoin="round"/>
<path d="M89.5 148.802V152.802" stroke="#057A55" stroke-width="2.5" stroke-linecap="round" stroke-linejoin="round"/>
<path d="M89.5 160.802V164.802" stroke="#057A55" stroke-width="2.5" stroke-linecap="round" stroke-linejoin="round"/>
<path d="M81.5 156.802H85.5" stroke="#057A55" stroke-width="2.5" stroke-linecap="round" stroke-linejoin="round"/>
<path d="M93.5 156.802H97.5" stroke="#057A55" stroke-width="2.5" stroke-linecap="round" stroke-linejoin="round"/>
<path fill-rule="evenodd" clip-rule="evenodd" d="M160.711 131.928C162.102 130.225 163.352 128.444 164.461 126.601C166.901 122.546 168.66 118.19 169.734 113.699C170.821 109.158 171.209 104.478 170.894 99.8316C170.62 95.7776 169.811 91.7495 168.465 87.8618C167.131 84.0048 165.268 80.286 162.875 76.817C161.45 74.7499 159.836 72.7716 158.034 70.9056C155.388 68.166 152.486 65.8239 149.402 63.8807C146.089 61.7928 142.566 60.1654 138.926 59.0004C134.368 57.5413 129.628 56.8074 124.886 56.802C121.197 56.7979 117.507 57.2348 113.902 58.1145C109.845 59.1048 105.895 60.6563 102.177 62.7712C98.9076 64.6304 95.817 66.925 92.988 69.6567C89.4328 73.0895 86.553 76.9592 84.3512 81.1005C82.1956 85.1552 80.6899 89.4702 79.8366 93.8907C78.9574 98.4449 78.7706 103.111 79.2789 107.72C79.9378 113.693 81.7643 119.57 84.7644 124.981C86.684 128.443 89.0842 131.714 91.9663 134.698C96.5416 139.436 101.883 142.985 107.604 145.337C114.562 148.199 122.081 149.291 129.465 148.602C135.662 148.023 141.765 146.189 147.361 143.092" fill="white"/>
<path d="M160.711 131.928C162.102 130.225 163.352 128.444 164.461 126.601C166.901 122.546 168.66 118.19 169.734 113.699C170.821 109.158 171.209 104.478 170.894 99.8316C170.62 95.7776 169.811 91.7495 168.465 87.8618C167.131 84.0048 165.268 80.286 162.875 76.817C161.45 74.7499 159.836 72.7716 158.034 70.9056C155.388 68.166 152.486 65.8239 149.402 63.8807C146.089 61.7928 142.566 60.1654 138.926 59.0004C134.368 57.5413 129.628 56.8074 124.886 56.802C121.197 56.7979 117.507 57.2348 113.902 58.1145C109.845 59.1048 105.895 60.6563 102.177 62.7712C98.9076 64.6304 95.817 66.925 92.988 69.6567C89.4328 73.0895 86.553 76.9592 84.3512 81.1005C82.1956 85.1552 80.6899 89.4702 79.8366 93.8907C78.9574 98.4449 78.7706 103.111 79.2789 107.72C79.9378 113.693 81.7643 119.57 84.7644 124.981C86.684 128.443 89.0842 131.714 91.9663 134.698C96.5416 139.436 101.883 142.985 107.604 145.337C114.562 148.199 122.081 149.291 129.465 148.602C135.662 148.023 141.765 146.189 147.361 143.092" stroke="#0E9F6E" stroke-width="2.5" stroke-linecap="round" stroke-linejoin="round"/>
<path fill-rule="evenodd" clip-rule="evenodd" d="M150.701 141.18C153.607 139.31 156.191 136.977 157.872 135.093L150.701 141.18Z" fill="white"/>
<path d="M150.701 141.18C153.607 139.31 156.191 136.977 157.872 135.093" stroke="#0E9F6E" stroke-width="2.5" stroke-linecap="round"/>
<path d="M167 105.419C166.714 105.424 166.427 105.427 166.14 105.427C140.886 105.427 120.209 85.7382 118.476 60.802C98.3752 63.9726 83 81.4546 83 102.545C83 125.883 101.825 144.802 125.048 144.802C147.309 144.802 165.53 127.417 167 105.419Z" fill="#BCF0DA"/>
<path fill-rule="evenodd" clip-rule="evenodd" d="M109.023 101.175C107.8 100.045 105.903 100.132 104.785 101.369C103.668 102.605 103.753 104.523 104.977 105.653L119.096 118.691C120.808 120.272 123.465 120.151 125.029 118.42C125.095 118.346 125.095 118.346 125.158 118.271L145.307 93.7736C146.366 92.4857 146.192 90.5736 144.918 89.5028C143.644 88.432 141.752 88.608 140.693 89.8959L121.75 112.927L109.023 101.175Z" fill="white" stroke="#0E9F6E" stroke-width="2.5" stroke-linecap="round"/>
<path fill-rule="evenodd" clip-rule="evenodd" d="M110.824 65.2151C108.874 65.9467 106.969 66.8358 105.128 67.8826C102.269 69.5092 99.5648 71.5169 97.0899 73.9069C96.0754 74.8866 95.1237 75.907 94.235 76.963M91.4851 80.6398C90.7785 81.7077 90.1281 82.8024 89.5342 83.9196C89.0956 84.7448 88.6877 85.5823 88.3106 86.4305" fill="white"/>
<path d="M111.263 66.3855C111.909 66.143 112.237 65.4224 111.994 64.776C111.752 64.1297 111.031 63.8023 110.385 64.0448L111.263 66.3855ZM105.128 67.8826L105.746 68.9691L105.128 67.8826ZM97.0899 73.9069L96.2216 73.0077L97.0899 73.9069ZM93.2786 76.1582C92.8341 76.6864 92.902 77.4749 93.4302 77.9194C93.9584 78.3639 94.7469 78.2961 95.1914 77.7679L93.2786 76.1582ZM92.5275 81.3297C92.9085 80.7539 92.7507 79.9784 92.1749 79.5974C91.5992 79.2164 90.8237 79.3743 90.4427 79.95L92.5275 81.3297ZM89.5342 83.9196L90.638 84.5064L90.638 84.5064L89.5342 83.9196ZM87.1684 85.9226C86.8879 86.5535 87.1719 87.2922 87.8027 87.5727C88.4335 87.8531 89.1723 87.5691 89.4528 86.9383L87.1684 85.9226ZM110.385 64.0448C108.373 64.7993 106.409 65.7163 104.51 66.796L105.746 68.9691C107.529 67.9552 109.374 67.0941 111.263 66.3855L110.385 64.0448ZM104.51 66.796C101.56 68.474 98.7724 70.5444 96.2216 73.0077L97.9582 74.8061C100.357 72.4894 102.977 70.5445 105.746 68.9691L104.51 66.796ZM96.2216 73.0077C95.176 74.0174 94.195 75.0693 93.2786 76.1582L95.1914 77.7679C96.0525 76.7447 96.9747 75.7558 97.9582 74.8061L96.2216 73.0077ZM90.4427 79.95C89.7138 81.0514 89.0431 82.1805 88.4305 83.3329L90.638 84.5064C91.2132 83.4242 91.8431 82.364 92.5275 81.3297L90.4427 79.95ZM88.4305 83.3329C87.978 84.184 87.5573 85.0479 87.1684 85.9226L89.4528 86.9383C89.818 86.1168 90.2131 85.3056 90.638 84.5064L88.4305 83.3329Z" fill="#057A55"/>
</svg>
